<svg width="152" height="32" viewBox="0 0 152 32" fill="none" xmlns="http://www.w3.org/2000/svg">
<rect y="1.23096" width="29.5385" height="29.5385" rx="3.69231" fill="#0459FE"/>
<path d="M11.0771 9.84619L18.4618 16L11.0771 22.1539" stroke="#EBECF0" stroke-width="2.46154" stroke-linecap="round" stroke-linejoin="round"/>
<mask id="path-3-outside-1_152_1179" maskUnits="userSpaceOnUse" x="41.3848" y="5" width="110" height="26" fill="black">
<rect fill="white" x="41.3848" y="5" width="110" height="26"/>
<path d="M45.4894 9.40308L44.7263 21.1938C46.4822 19.241 48.0986 17.1815 49.5755 15.0154C51.0689 12.8328 52.3981 10.5272 53.5632 8.09846C53.6453 7.93436 53.793 7.88513 54.0063 7.95077C54.2196 8.01641 54.433 8.14769 54.6463 8.34461C54.876 8.54154 55.0566 8.75487 55.1878 8.98461C55.3355 9.19795 55.3766 9.37846 55.3109 9.52615C53.9325 12.4144 52.3243 15.1138 50.4863 17.6246C48.6648 20.1354 46.6545 22.5149 44.4555 24.7631C44.3243 24.9108 44.1191 24.9108 43.8402 24.7631C43.5776 24.6318 43.3314 24.4349 43.1017 24.1723C42.8719 23.9262 42.7489 23.6964 42.7325 23.4831C42.6996 23.401 42.6832 23.319 42.6832 23.2369L43.6678 8.22154C43.6843 8.0082 43.7827 7.91795 43.9632 7.95077C44.1602 7.96718 44.3735 8.05743 44.6032 8.22154C44.8494 8.38564 45.0627 8.58256 45.2432 8.81231C45.4237 9.02564 45.5058 9.22256 45.4894 9.40308ZM60.4417 9.35385L60.9832 7.87692C61.0489 7.69641 61.1802 7.63897 61.3771 7.70461C61.5904 7.75384 61.8119 7.87692 62.0417 8.07385C62.2878 8.25436 62.4766 8.45949 62.6078 8.68923C62.7555 8.90256 62.8048 9.09128 62.7555 9.25538L62.214 10.7323C62.1484 10.9128 62.0089 10.9785 61.7955 10.9292C61.5986 10.8636 61.3853 10.7405 61.1555 10.56C60.9258 10.3631 60.7371 10.1579 60.5894 9.94461C60.4417 9.71487 60.3925 9.51795 60.4417 9.35385ZM55.3955 23.3108L59.334 12.5292C59.3996 12.3487 59.5309 12.2913 59.7278 12.3569C59.9412 12.4062 60.1627 12.5292 60.3925 12.7262C60.6222 12.9067 60.8109 13.1118 60.9586 13.3415C61.1063 13.5549 61.1473 13.7436 61.0817 13.9077L57.1678 24.6892C57.1022 24.8697 56.9627 24.9272 56.7494 24.8615C56.5525 24.8123 56.3309 24.6892 56.0848 24.4923C55.855 24.3118 55.6745 24.1149 55.5432 23.9015C55.3955 23.6718 55.3463 23.4749 55.3955 23.3108ZM71.2923 7.75385L68.7569 14.72C69.4297 13.8338 70.1025 13.1938 70.7753 12.8C71.4482 12.4062 72.0635 12.2092 72.6215 12.2092C73.3271 12.2092 73.9015 12.48 74.3446 13.0215C74.7877 13.5631 75.042 14.3179 75.1077 15.2862C75.1733 16.2544 74.9764 17.3785 74.5169 18.6585C73.9589 20.201 73.2123 21.4482 72.2769 22.4C71.3579 23.3354 70.3241 24.0164 69.1753 24.4431C68.0266 24.8862 66.8287 25.1077 65.5815 25.1077C65.3682 25.1077 65.1302 25.0092 64.8677 24.8123C64.6215 24.6154 64.4082 24.3856 64.2277 24.1231C64.0635 23.8769 64.0061 23.6882 64.0553 23.5569C64.121 23.4421 64.2277 23.3846 64.3753 23.3846C65.5569 23.3846 66.6892 23.1713 67.7723 22.7446C68.8553 22.3179 69.8235 21.6533 70.6769 20.7508C71.5466 19.8482 72.2359 18.6913 72.7446 17.28C73.0235 16.5415 73.0235 15.9262 72.7446 15.4338C72.482 14.9415 72.0635 14.6954 71.4892 14.6954C71.0461 14.6954 70.5456 14.8759 69.9877 15.2369C69.4461 15.5979 68.8964 16.1805 68.3384 16.9846C67.7805 17.7723 67.2553 18.839 66.763 20.1846L66.0738 22.0554C66.0574 22.1703 65.9671 22.2277 65.803 22.2277C65.6061 22.2277 65.3764 22.1374 65.1138 21.9569C64.8677 21.76 64.6543 21.5385 64.4738 21.2923C64.3097 21.0462 64.2605 20.841 64.3261 20.6769L69.52 6.37538C69.5692 6.26051 69.6677 6.20308 69.8153 6.20308C70.0123 6.20308 70.2338 6.30154 70.48 6.49846C70.7425 6.67897 70.9559 6.89231 71.12 7.13846C71.3005 7.3682 71.3579 7.57333 71.2923 7.75385ZM87.3405 22.9908C86.5693 23.6308 85.8308 24.1231 85.1252 24.4677C84.4195 24.8123 83.7057 24.9846 82.9836 24.9846C82.1139 24.9846 81.4082 24.8287 80.8667 24.5169C80.3416 24.2051 79.9477 23.7949 79.6852 23.2862C79.439 22.761 79.2913 22.1867 79.2421 21.5631C79.1928 20.9395 79.2257 20.3159 79.3405 19.6923C79.4554 19.0523 79.6195 18.4615 79.8328 17.92C80.2759 16.7713 80.8749 15.7785 81.6298 14.9415C82.401 14.0882 83.2216 13.4236 84.0913 12.9477C84.9775 12.4718 85.798 12.2338 86.5528 12.2338C87.0123 12.2338 87.48 12.3241 87.9559 12.5046C88.4318 12.6687 88.8421 12.9231 89.1867 13.2677C89.5477 13.5959 89.7857 14.0144 89.9005 14.5231C90.0318 15.0154 89.9662 15.5979 89.7036 16.2708C89.2934 17.3703 88.4975 18.3713 87.3159 19.2738C86.1344 20.16 84.4523 20.7918 82.2698 21.1692C82.1221 21.2021 81.9334 21.1528 81.7036 21.0215C81.4903 20.8903 81.3016 20.7344 81.1375 20.5538C80.9241 21.2431 80.8175 21.7764 80.8175 22.1538C80.8175 22.5313 80.8749 22.8021 80.9898 22.9662C81.121 23.1138 81.2605 23.2041 81.4082 23.2369C81.5723 23.2533 81.7036 23.2615 81.8021 23.2615C82.3272 23.2615 82.9344 23.1056 83.6236 22.7938C84.3128 22.4656 85.0185 22.0062 85.7405 21.4154C85.8718 21.3005 86.0441 21.3005 86.2575 21.4154C86.4872 21.5138 86.7087 21.6697 86.9221 21.8831C87.1354 22.0964 87.2913 22.3097 87.3898 22.5231C87.4882 22.7364 87.4718 22.8923 87.3405 22.9908ZM81.5559 19.2985L81.5313 19.3723C82.8769 19.0933 84.0667 18.6913 85.1005 18.1662C86.1508 17.6246 86.9959 17.0667 87.6359 16.4923C88.2923 15.9015 88.7108 15.3846 88.8913 14.9415C88.9241 14.8759 88.9323 14.7692 88.9159 14.6215C88.9159 14.4574 88.8339 14.3097 88.6698 14.1785C88.5057 14.0308 88.1939 13.9569 87.7344 13.9569C87.1764 13.9569 86.5857 14.1046 85.9621 14.4C85.3549 14.6954 84.7641 15.0974 84.1898 15.6062C83.6318 16.0985 83.1231 16.6646 82.6636 17.3046C82.2041 17.9446 81.8349 18.6092 81.5559 19.2985ZM96.9834 13.7846L96.4665 22.4L102.62 12.48C102.719 12.3323 102.875 12.2995 103.088 12.3815C103.301 12.4636 103.515 12.6031 103.728 12.8C103.958 12.9969 104.13 13.2103 104.245 13.44C104.376 13.6533 104.401 13.8256 104.319 13.9569L96.5157 26.56C96.1711 27.1015 95.7527 27.6431 95.2603 28.1846C94.7844 28.7262 94.2265 29.1774 93.5865 29.5385C92.9629 29.8995 92.2573 30.08 91.4696 30.08C91.2727 30.08 91.0593 29.9897 90.8296 29.8092C90.5998 29.6451 90.4029 29.4482 90.2388 29.2185C90.0747 28.9887 89.9844 28.7836 89.968 28.6031C89.9516 28.439 90.0665 28.3569 90.3127 28.3569C90.8378 28.3569 91.3875 28.1928 91.9619 27.8646C92.5362 27.5528 93.0696 27.1426 93.5619 26.6338C94.0706 26.1251 94.4891 25.6082 94.8173 25.0831L95.728 23.6062C95.4819 23.4749 95.2357 23.2779 94.9896 23.0154C94.7434 22.7364 94.6203 22.4903 94.6203 22.2769L95.2111 12.6523C95.2111 12.4226 95.3014 12.3159 95.4819 12.3323C95.6788 12.3487 95.8921 12.439 96.1219 12.6031C96.3516 12.7672 96.5485 12.9641 96.7127 13.1938C96.8932 13.4072 96.9834 13.6041 96.9834 13.7846ZM108.769 24.07C108.639 24.07 108.536 24.0327 108.461 23.958C108.387 23.8833 108.349 23.776 108.349 23.636C108.349 23.5053 108.387 23.4027 108.461 23.328C108.536 23.244 108.639 23.202 108.769 23.202C108.9 23.202 109.003 23.2393 109.077 23.314C109.152 23.3887 109.189 23.496 109.189 23.636C109.189 23.7573 109.152 23.86 109.077 23.944C109.003 24.028 108.9 24.07 108.769 24.07ZM116.743 24.14C116.015 24.14 115.371 23.9767 114.811 23.65C114.251 23.3233 113.812 22.8707 113.495 22.292C113.177 21.7133 113.019 21.0553 113.019 20.318C113.019 19.59 113.177 18.946 113.495 18.386C113.812 17.8167 114.251 17.3733 114.811 17.056C115.371 16.7387 116.015 16.58 116.743 16.58C117.331 16.58 117.863 16.692 118.339 16.916C118.815 17.1307 119.216 17.4247 119.543 17.798L119.319 18.036C119.113 17.7933 118.875 17.588 118.605 17.42C118.343 17.252 118.054 17.1213 117.737 17.028C117.429 16.9347 117.097 16.888 116.743 16.888C116.08 16.888 115.492 17.0373 114.979 17.336C114.475 17.6253 114.073 18.0267 113.775 18.54C113.485 19.0533 113.336 19.646 113.327 20.318C113.336 20.9993 113.485 21.606 113.775 22.138C114.073 22.67 114.475 23.0853 114.979 23.384C115.492 23.6827 116.08 23.832 116.743 23.832C117.088 23.832 117.415 23.79 117.723 23.706C118.031 23.6127 118.315 23.482 118.577 23.314C118.847 23.1367 119.085 22.9313 119.291 22.698L119.515 22.922C119.179 23.2953 118.777 23.594 118.311 23.818C117.844 24.0327 117.321 24.14 116.743 24.14ZM126.24 24.14C125.503 24.14 124.849 23.9767 124.28 23.65C123.72 23.3233 123.281 22.8707 122.964 22.292C122.647 21.7133 122.488 21.0553 122.488 20.318C122.488 19.59 122.647 18.946 122.964 18.386C123.281 17.8167 123.72 17.3733 124.28 17.056C124.849 16.7387 125.503 16.58 126.24 16.58C126.977 16.58 127.626 16.7387 128.186 17.056C128.755 17.3733 129.194 17.8167 129.502 18.386C129.819 18.946 129.978 19.59 129.978 20.318C129.978 21.0553 129.819 21.7133 129.502 22.292C129.194 22.8707 128.755 23.3233 128.186 23.65C127.626 23.9767 126.977 24.14 126.24 24.14ZM126.24 23.832C126.903 23.832 127.491 23.6827 128.004 23.384C128.517 23.0853 128.923 22.67 129.222 22.138C129.521 21.606 129.67 20.9993 129.67 20.318C129.67 19.6553 129.521 19.0673 129.222 18.554C128.923 18.0407 128.517 17.6347 128.004 17.336C127.491 17.0373 126.903 16.888 126.24 16.888C125.577 16.888 124.985 17.0373 124.462 17.336C123.949 17.6347 123.543 18.0407 123.244 18.554C122.945 19.0673 122.796 19.6553 122.796 20.318C122.796 20.9993 122.945 21.606 123.244 22.138C123.543 22.67 123.949 23.0853 124.462 23.384C124.985 23.6827 125.577 23.832 126.24 23.832ZM136.757 24.14C136.076 24.14 135.465 23.9813 134.923 23.664C134.391 23.3373 133.971 22.894 133.663 22.334C133.355 21.7647 133.201 21.116 133.201 20.388C133.201 19.6507 133.36 18.9973 133.677 18.428C133.995 17.8493 134.415 17.3967 134.937 17.07C135.469 16.7433 136.057 16.58 136.701 16.58C137.075 16.58 137.434 16.6453 137.779 16.776C138.134 16.8973 138.456 17.0747 138.745 17.308C139.035 17.532 139.277 17.798 139.473 18.106C139.669 18.4047 139.8 18.736 139.865 19.1L139.781 19.058V13.64H140.089V24H139.781V21.592L139.907 21.55C139.814 21.9233 139.669 22.2687 139.473 22.586C139.277 22.9033 139.039 23.1787 138.759 23.412C138.479 23.6453 138.171 23.8273 137.835 23.958C137.499 24.0793 137.14 24.14 136.757 24.14ZM136.743 23.832C137.313 23.832 137.826 23.6873 138.283 23.398C138.75 23.0993 139.114 22.6887 139.375 22.166C139.646 21.6433 139.781 21.0413 139.781 20.36C139.781 19.688 139.646 19.0907 139.375 18.568C139.114 18.0453 138.75 17.6347 138.283 17.336C137.826 17.0373 137.303 16.888 136.715 16.888C136.09 16.888 135.535 17.0373 135.049 17.336C134.564 17.6347 134.186 18.05 133.915 18.582C133.645 19.1047 133.509 19.7067 133.509 20.388C133.509 21.0507 133.645 21.6433 133.915 22.166C134.186 22.6793 134.564 23.0853 135.049 23.384C135.535 23.6827 136.099 23.832 136.743 23.832ZM147.348 24.14C146.639 24.14 146.014 23.9767 145.472 23.65C144.931 23.3233 144.506 22.8707 144.198 22.292C143.9 21.7133 143.75 21.0553 143.75 20.318C143.75 19.7673 143.834 19.2633 144.002 18.806C144.17 18.3487 144.404 17.9567 144.702 17.63C145.01 17.294 145.374 17.0373 145.794 16.86C146.214 16.6733 146.676 16.58 147.18 16.58C147.647 16.58 148.076 16.6593 148.468 16.818C148.86 16.9673 149.196 17.1913 149.476 17.49C149.766 17.7793 149.985 18.1293 150.134 18.54C150.284 18.9507 150.349 19.4127 150.33 19.926L150.316 20.29H143.918V19.982H150.162L149.994 20.22L150.022 19.87C150.022 19.2727 149.896 18.75 149.644 18.302C149.392 17.854 149.052 17.5087 148.622 17.266C148.202 17.014 147.736 16.888 147.222 16.888C146.588 16.888 146.032 17.0373 145.556 17.336C145.09 17.6253 144.726 18.0313 144.464 18.554C144.203 19.0673 144.068 19.6553 144.058 20.318C144.068 20.9993 144.212 21.606 144.492 22.138C144.772 22.67 145.155 23.0853 145.64 23.384C146.135 23.6827 146.704 23.832 147.348 23.832C147.834 23.832 148.282 23.7433 148.692 23.566C149.103 23.3887 149.472 23.146 149.798 22.838L149.966 23.09C149.733 23.3047 149.481 23.4913 149.21 23.65C148.949 23.7993 148.66 23.916 148.342 24C148.034 24.0933 147.703 24.14 147.348 24.14Z"/>
</mask>
<path d="M45.4894 9.40308L44.7263 21.1938C46.4822 19.241 48.0986 17.1815 49.5755 15.0154C51.0689 12.8328 52.3981 10.5272 53.5632 8.09846C53.6453 7.93436 53.793 7.88513 54.0063 7.95077C54.2196 8.01641 54.433 8.14769 54.6463 8.34461C54.876 8.54154 55.0566 8.75487 55.1878 8.98461C55.3355 9.19795 55.3766 9.37846 55.3109 9.52615C53.9325 12.4144 52.3243 15.1138 50.4863 17.6246C48.6648 20.1354 46.6545 22.5149 44.4555 24.7631C44.3243 24.9108 44.1191 24.9108 43.8402 24.7631C43.5776 24.6318 43.3314 24.4349 43.1017 24.1723C42.8719 23.9262 42.7489 23.6964 42.7325 23.4831C42.6996 23.401 42.6832 23.319 42.6832 23.2369L43.6678 8.22154C43.6843 8.0082 43.7827 7.91795 43.9632 7.95077C44.1602 7.96718 44.3735 8.05743 44.6032 8.22154C44.8494 8.38564 45.0627 8.58256 45.2432 8.81231C45.4237 9.02564 45.5058 9.22256 45.4894 9.40308ZM60.4417 9.35385L60.9832 7.87692C61.0489 7.69641 61.1802 7.63897 61.3771 7.70461C61.5904 7.75384 61.8119 7.87692 62.0417 8.07385C62.2878 8.25436 62.4766 8.45949 62.6078 8.68923C62.7555 8.90256 62.8048 9.09128 62.7555 9.25538L62.214 10.7323C62.1484 10.9128 62.0089 10.9785 61.7955 10.9292C61.5986 10.8636 61.3853 10.7405 61.1555 10.56C60.9258 10.3631 60.7371 10.1579 60.5894 9.94461C60.4417 9.71487 60.3925 9.51795 60.4417 9.35385ZM55.3955 23.3108L59.334 12.5292C59.3996 12.3487 59.5309 12.2913 59.7278 12.3569C59.9412 12.4062 60.1627 12.5292 60.3925 12.7262C60.6222 12.9067 60.8109 13.1118 60.9586 13.3415C61.1063 13.5549 61.1473 13.7436 61.0817 13.9077L57.1678 24.6892C57.1022 24.8697 56.9627 24.9272 56.7494 24.8615C56.5525 24.8123 56.3309 24.6892 56.0848 24.4923C55.855 24.3118 55.6745 24.1149 55.5432 23.9015C55.3955 23.6718 55.3463 23.4749 55.3955 23.3108ZM71.2923 7.75385L68.7569 14.72C69.4297 13.8338 70.1025 13.1938 70.7753 12.8C71.4482 12.4062 72.0635 12.2092 72.6215 12.2092C73.3271 12.2092 73.9015 12.48 74.3446 13.0215C74.7877 13.5631 75.042 14.3179 75.1077 15.2862C75.1733 16.2544 74.9764 17.3785 74.5169 18.6585C73.9589 20.201 73.2123 21.4482 72.2769 22.4C71.3579 23.3354 70.3241 24.0164 69.1753 24.4431C68.0266 24.8862 66.8287 25.1077 65.5815 25.1077C65.3682 25.1077 65.1302 25.0092 64.8677 24.8123C64.6215 24.6154 64.4082 24.3856 64.2277 24.1231C64.0635 23.8769 64.0061 23.6882 64.0553 23.5569C64.121 23.4421 64.2277 23.3846 64.3753 23.3846C65.5569 23.3846 66.6892 23.1713 67.7723 22.7446C68.8553 22.3179 69.8235 21.6533 70.6769 20.7508C71.5466 19.8482 72.2359 18.6913 72.7446 17.28C73.0235 16.5415 73.0235 15.9262 72.7446 15.4338C72.482 14.9415 72.0635 14.6954 71.4892 14.6954C71.0461 14.6954 70.5456 14.8759 69.9877 15.2369C69.4461 15.5979 68.8964 16.1805 68.3384 16.9846C67.7805 17.7723 67.2553 18.839 66.763 20.1846L66.0738 22.0554C66.0574 22.1703 65.9671 22.2277 65.803 22.2277C65.6061 22.2277 65.3764 22.1374 65.1138 21.9569C64.8677 21.76 64.6543 21.5385 64.4738 21.2923C64.3097 21.0462 64.2605 20.841 64.3261 20.6769L69.52 6.37538C69.5692 6.26051 69.6677 6.20308 69.8153 6.20308C70.0123 6.20308 70.2338 6.30154 70.48 6.49846C70.7425 6.67897 70.9559 6.89231 71.12 7.13846C71.3005 7.3682 71.3579 7.57333 71.2923 7.75385ZM87.3405 22.9908C86.5693 23.6308 85.8308 24.1231 85.1252 24.4677C84.4195 24.8123 83.7057 24.9846 82.9836 24.9846C82.1139 24.9846 81.4082 24.8287 80.8667 24.5169C80.3416 24.2051 79.9477 23.7949 79.6852 23.2862C79.439 22.761 79.2913 22.1867 79.2421 21.5631C79.1928 20.9395 79.2257 20.3159 79.3405 19.6923C79.4554 19.0523 79.6195 18.4615 79.8328 17.92C80.2759 16.7713 80.8749 15.7785 81.6298 14.9415C82.401 14.0882 83.2216 13.4236 84.0913 12.9477C84.9775 12.4718 85.798 12.2338 86.5528 12.2338C87.0123 12.2338 87.48 12.3241 87.9559 12.5046C88.4318 12.6687 88.8421 12.9231 89.1867 13.2677C89.5477 13.5959 89.7857 14.0144 89.9005 14.5231C90.0318 15.0154 89.9662 15.5979 89.7036 16.2708C89.2934 17.3703 88.4975 18.3713 87.3159 19.2738C86.1344 20.16 84.4523 20.7918 82.2698 21.1692C82.1221 21.2021 81.9334 21.1528 81.7036 21.0215C81.4903 20.8903 81.3016 20.7344 81.1375 20.5538C80.9241 21.2431 80.8175 21.7764 80.8175 22.1538C80.8175 22.5313 80.8749 22.8021 80.9898 22.9662C81.121 23.1138 81.2605 23.2041 81.4082 23.2369C81.5723 23.2533 81.7036 23.2615 81.8021 23.2615C82.3272 23.2615 82.9344 23.1056 83.6236 22.7938C84.3128 22.4656 85.0185 22.0062 85.7405 21.4154C85.8718 21.3005 86.0441 21.3005 86.2575 21.4154C86.4872 21.5138 86.7087 21.6697 86.9221 21.8831C87.1354 22.0964 87.2913 22.3097 87.3898 22.5231C87.4882 22.7364 87.4718 22.8923 87.3405 22.9908ZM81.5559 19.2985L81.5313 19.3723C82.8769 19.0933 84.0667 18.6913 85.1005 18.1662C86.1508 17.6246 86.9959 17.0667 87.6359 16.4923C88.2923 15.9015 88.7108 15.3846 88.8913 14.9415C88.9241 14.8759 88.9323 14.7692 88.9159 14.6215C88.9159 14.4574 88.8339 14.3097 88.6698 14.1785C88.5057 14.0308 88.1939 13.9569 87.7344 13.9569C87.1764 13.9569 86.5857 14.1046 85.9621 14.4C85.3549 14.6954 84.7641 15.0974 84.1898 15.6062C83.6318 16.0985 83.1231 16.6646 82.6636 17.3046C82.2041 17.9446 81.8349 18.6092 81.5559 19.2985ZM96.9834 13.7846L96.4665 22.4L102.62 12.48C102.719 12.3323 102.875 12.2995 103.088 12.3815C103.301 12.4636 103.515 12.6031 103.728 12.8C103.958 12.9969 104.13 13.2103 104.245 13.44C104.376 13.6533 104.401 13.8256 104.319 13.9569L96.5157 26.56C96.1711 27.1015 95.7527 27.6431 95.2603 28.1846C94.7844 28.7262 94.2265 29.1774 93.5865 29.5385C92.9629 29.8995 92.2573 30.08 91.4696 30.08C91.2727 30.08 91.0593 29.9897 90.8296 29.8092C90.5998 29.6451 90.4029 29.4482 90.2388 29.2185C90.0747 28.9887 89.9844 28.7836 89.968 28.6031C89.9516 28.439 90.0665 28.3569 90.3127 28.3569C90.8378 28.3569 91.3875 28.1928 91.9619 27.8646C92.5362 27.5528 93.0696 27.1426 93.5619 26.6338C94.0706 26.1251 94.4891 25.6082 94.8173 25.0831L95.728 23.6062C95.4819 23.4749 95.2357 23.2779 94.9896 23.0154C94.7434 22.7364 94.6203 22.4903 94.6203 22.2769L95.2111 12.6523C95.2111 12.4226 95.3014 12.3159 95.4819 12.3323C95.6788 12.3487 95.8921 12.439 96.1219 12.6031C96.3516 12.7672 96.5485 12.9641 96.7127 13.1938C96.8932 13.4072 96.9834 13.6041 96.9834 13.7846ZM108.769 24.07C108.639 24.07 108.536 24.0327 108.461 23.958C108.387 23.8833 108.349 23.776 108.349 23.636C108.349 23.5053 108.387 23.4027 108.461 23.328C108.536 23.244 108.639 23.202 108.769 23.202C108.9 23.202 109.003 23.2393 109.077 23.314C109.152 23.3887 109.189 23.496 109.189 23.636C109.189 23.7573 109.152 23.86 109.077 23.944C109.003 24.028 108.9 24.07 108.769 24.07ZM116.743 24.14C116.015 24.14 115.371 23.9767 114.811 23.65C114.251 23.3233 113.812 22.8707 113.495 22.292C113.177 21.7133 113.019 21.0553 113.019 20.318C113.019 19.59 113.177 18.946 113.495 18.386C113.812 17.8167 114.251 17.3733 114.811 17.056C115.371 16.7387 116.015 16.58 116.743 16.58C117.331 16.58 117.863 16.692 118.339 16.916C118.815 17.1307 119.216 17.4247 119.543 17.798L119.319 18.036C119.113 17.7933 118.875 17.588 118.605 17.42C118.343 17.252 118.054 17.1213 117.737 17.028C117.429 16.9347 117.097 16.888 116.743 16.888C116.08 16.888 115.492 17.0373 114.979 17.336C114.475 17.6253 114.073 18.0267 113.775 18.54C113.485 19.0533 113.336 19.646 113.327 20.318C113.336 20.9993 113.485 21.606 113.775 22.138C114.073 22.67 114.475 23.0853 114.979 23.384C115.492 23.6827 116.08 23.832 116.743 23.832C117.088 23.832 117.415 23.79 117.723 23.706C118.031 23.6127 118.315 23.482 118.577 23.314C118.847 23.1367 119.085 22.9313 119.291 22.698L119.515 22.922C119.179 23.2953 118.777 23.594 118.311 23.818C117.844 24.0327 117.321 24.14 116.743 24.14ZM126.24 24.14C125.503 24.14 124.849 23.9767 124.28 23.65C123.72 23.3233 123.281 22.8707 122.964 22.292C122.647 21.7133 122.488 21.0553 122.488 20.318C122.488 19.59 122.647 18.946 122.964 18.386C123.281 17.8167 123.72 17.3733 124.28 17.056C124.849 16.7387 125.503 16.58 126.24 16.58C126.977 16.58 127.626 16.7387 128.186 17.056C128.755 17.3733 129.194 17.8167 129.502 18.386C129.819 18.946 129.978 19.59 129.978 20.318C129.978 21.0553 129.819 21.7133 129.502 22.292C129.194 22.8707 128.755 23.3233 128.186 23.65C127.626 23.9767 126.977 24.14 126.24 24.14ZM126.24 23.832C126.903 23.832 127.491 23.6827 128.004 23.384C128.517 23.0853 128.923 22.67 129.222 22.138C129.521 21.606 129.67 20.9993 129.67 20.318C129.67 19.6553 129.521 19.0673 129.222 18.554C128.923 18.0407 128.517 17.6347 128.004 17.336C127.491 17.0373 126.903 16.888 126.24 16.888C125.577 16.888 124.985 17.0373 124.462 17.336C123.949 17.6347 123.543 18.0407 123.244 18.554C122.945 19.0673 122.796 19.6553 122.796 20.318C122.796 20.9993 122.945 21.606 123.244 22.138C123.543 22.67 123.949 23.0853 124.462 23.384C124.985 23.6827 125.577 23.832 126.24 23.832ZM136.757 24.14C136.076 24.14 135.465 23.9813 134.923 23.664C134.391 23.3373 133.971 22.894 133.663 22.334C133.355 21.7647 133.201 21.116 133.201 20.388C133.201 19.6507 133.36 18.9973 133.677 18.428C133.995 17.8493 134.415 17.3967 134.937 17.07C135.469 16.7433 136.057 16.58 136.701 16.58C137.075 16.58 137.434 16.6453 137.779 16.776C138.134 16.8973 138.456 17.0747 138.745 17.308C139.035 17.532 139.277 17.798 139.473 18.106C139.669 18.4047 139.8 18.736 139.865 19.1L139.781 19.058V13.64H140.089V24H139.781V21.592L139.907 21.55C139.814 21.9233 139.669 22.2687 139.473 22.586C139.277 22.9033 139.039 23.1787 138.759 23.412C138.479 23.6453 138.171 23.8273 137.835 23.958C137.499 24.0793 137.14 24.14 136.757 24.14ZM136.743 23.832C137.313 23.832 137.826 23.6873 138.283 23.398C138.75 23.0993 139.114 22.6887 139.375 22.166C139.646 21.6433 139.781 21.0413 139.781 20.36C139.781 19.688 139.646 19.0907 139.375 18.568C139.114 18.0453 138.75 17.6347 138.283 17.336C137.826 17.0373 137.303 16.888 136.715 16.888C136.09 16.888 135.535 17.0373 135.049 17.336C134.564 17.6347 134.186 18.05 133.915 18.582C133.645 19.1047 133.509 19.7067 133.509 20.388C133.509 21.0507 133.645 21.6433 133.915 22.166C134.186 22.6793 134.564 23.0853 135.049 23.384C135.535 23.6827 136.099 23.832 136.743 23.832ZM147.348 24.14C146.639 24.14 146.014 23.9767 145.472 23.65C144.931 23.3233 144.506 22.8707 144.198 22.292C143.9 21.7133 143.75 21.0553 143.75 20.318C143.75 19.7673 143.834 19.2633 144.002 18.806C144.17 18.3487 144.404 17.9567 144.702 17.63C145.01 17.294 145.374 17.0373 145.794 16.86C146.214 16.6733 146.676 16.58 147.18 16.58C147.647 16.58 148.076 16.6593 148.468 16.818C148.86 16.9673 149.196 17.1913 149.476 17.49C149.766 17.7793 149.985 18.1293 150.134 18.54C150.284 18.9507 150.349 19.4127 150.33 19.926L150.316 20.29H143.918V19.982H150.162L149.994 20.22L150.022 19.87C150.022 19.2727 149.896 18.75 149.644 18.302C149.392 17.854 149.052 17.5087 148.622 17.266C148.202 17.014 147.736 16.888 147.222 16.888C146.588 16.888 146.032 17.0373 145.556 17.336C145.09 17.6253 144.726 18.0313 144.464 18.554C144.203 19.0673 144.068 19.6553 144.058 20.318C144.068 20.9993 144.212 21.606 144.492 22.138C144.772 22.67 145.155 23.0853 145.64 23.384C146.135 23.6827 146.704 23.832 147.348 23.832C147.834 23.832 148.282 23.7433 148.692 23.566C149.103 23.3887 149.472 23.146 149.798 22.838L149.966 23.09C149.733 23.3047 149.481 23.4913 149.21 23.65C148.949 23.7993 148.66 23.916 148.342 24C148.034 24.0933 147.703 24.14 147.348 24.14Z" fill="#EBECF0"/>
<path d="M45.4894 9.40308L44.8765 9.34736L44.8758 9.35534L44.8753 9.36333L45.4894 9.40308ZM44.7263 21.1938L44.1122 21.1541L43.9976 22.9246L45.1839 21.6053L44.7263 21.1938ZM49.5755 15.0154L49.0677 14.6679L49.0671 14.6687L49.5755 15.0154ZM53.5632 8.09846L53.0127 7.82322L53.0084 7.83229L53.5632 8.09846ZM54.6463 8.34461L54.2289 8.7968L54.2372 8.80448L54.2458 8.81185L54.6463 8.34461ZM55.1878 8.98461L54.6535 9.28993L54.6667 9.31303L54.6819 9.3349L55.1878 8.98461ZM55.3109 9.52615L55.8663 9.79122L55.8699 9.7837L55.8733 9.77608L55.3109 9.52615ZM50.4863 17.6246L49.9897 17.2611L49.9882 17.2632L50.4863 17.6246ZM44.4555 24.7631L44.0156 24.3328L44.0053 24.3433L43.9956 24.3542L44.4555 24.7631ZM43.8402 24.7631L44.1281 24.2192L44.1218 24.2159L44.1154 24.2127L43.8402 24.7631ZM43.1017 24.1723L43.5648 23.7671L43.5583 23.7596L43.5516 23.7524L43.1017 24.1723ZM42.7325 23.4831L43.346 23.4359L43.3388 23.342L43.3038 23.2545L42.7325 23.4831ZM42.6832 23.2369L42.0692 23.1967L42.0678 23.2168V23.2369H42.6832ZM43.6678 8.22154L43.0542 8.17434L43.0538 8.18127L43.6678 8.22154ZM43.9632 7.95077L43.8531 8.55623L43.8824 8.56155L43.9121 8.56403L43.9632 7.95077ZM44.6032 8.22154L44.2455 8.7223L44.2536 8.72806L44.2619 8.73357L44.6032 8.22154ZM45.2432 8.81231L44.7593 9.1925L44.7662 9.20128L44.7735 9.20981L45.2432 8.81231ZM45.4894 9.40308L44.8753 9.36333L44.1122 21.1541L44.7263 21.1938L45.3404 21.2336L46.1035 9.44282L45.4894 9.40308ZM44.7263 21.1938L45.1839 21.6053C46.9581 19.6321 48.5916 17.551 50.084 15.3621L49.5755 15.0154L49.0671 14.6687C47.6057 16.8121 46.0063 18.85 44.2687 20.7824L44.7263 21.1938ZM49.5755 15.0154L50.0834 15.3629C51.5948 13.154 52.9396 10.8211 54.1181 8.36463L53.5632 8.09846L53.0084 7.83229C51.8566 10.2333 50.543 12.5117 49.0677 14.6679L49.5755 15.0154ZM53.5632 8.09846L54.1136 8.37367C54.1067 8.38761 54.0895 8.41657 54.0558 8.44787C54.0206 8.48055 53.9771 8.5066 53.9301 8.52227C53.8398 8.55236 53.7901 8.5281 53.8253 8.53894L54.0063 7.95077L54.1873 7.3626C54.0092 7.30779 53.7789 7.27533 53.5409 7.35466C53.2848 7.44002 53.1128 7.62327 53.0128 7.82325L53.5632 8.09846ZM54.0063 7.95077L53.8253 8.53894C53.9284 8.57064 54.0637 8.64427 54.2289 8.7968L54.6463 8.34461L55.0637 7.89243C54.8023 7.65112 54.5109 7.46218 54.1873 7.3626L54.0063 7.95077ZM54.6463 8.34461L54.2458 8.81185C54.4296 8.96936 54.5619 9.12954 54.6535 9.28993L55.1878 8.98461L55.7221 8.6793C55.5512 8.38021 55.3225 8.11371 55.0468 7.87738L54.6463 8.34461ZM55.1878 8.98461L54.6819 9.3349C54.7036 9.36628 54.7165 9.38938 54.7236 9.40438C54.7309 9.41941 54.7308 9.42311 54.7293 9.41638C54.7276 9.40908 54.7244 9.39041 54.7265 9.36321C54.7286 9.33513 54.7358 9.30501 54.7486 9.27622L55.3109 9.52615L55.8733 9.77608C56.0699 9.33373 55.8863 8.91244 55.6938 8.63433L55.1878 8.98461ZM55.3109 9.52615L54.7555 9.26109C53.3931 12.1157 51.8044 14.7821 49.9897 17.2611L50.4863 17.6246L50.9829 17.9881C52.8441 15.4456 54.4718 12.713 55.8663 9.79122L55.3109 9.52615ZM50.4863 17.6246L49.9882 17.2632C48.1846 19.7493 46.1938 22.1058 44.0156 24.3328L44.4555 24.7631L44.8955 25.1934C47.1152 22.9239 49.1449 20.5215 50.9844 17.986L50.4863 17.6246ZM44.4555 24.7631L43.9956 24.3542C44.0171 24.33 44.0507 24.3025 44.0958 24.2827C44.1404 24.2631 44.1793 24.2585 44.2032 24.2585C44.2251 24.2585 44.2304 24.2622 44.2151 24.2576C44.1999 24.2529 44.1713 24.2421 44.1281 24.2192L43.8402 24.7631L43.5522 25.3069C43.7369 25.4047 43.9605 25.4892 44.2032 25.4892C44.474 25.4892 44.7281 25.3827 44.9155 25.1719L44.4555 24.7631ZM43.8402 24.7631L44.1154 24.2127C43.9364 24.1232 43.7517 23.9806 43.5648 23.7671L43.1017 24.1723L42.6386 24.5775C42.9112 24.8891 43.2188 25.1404 43.5649 25.3135L43.8402 24.7631ZM43.1017 24.1723L43.5516 23.7524C43.3657 23.5533 43.3471 23.45 43.346 23.4359L42.7325 23.4831L42.1189 23.5303C42.1506 23.9428 42.3781 24.299 42.6518 24.5922L43.1017 24.1723ZM42.7325 23.4831L43.3038 23.2545C43.3006 23.2465 43.2994 23.2415 43.299 23.2393C43.2986 23.2372 43.2986 23.2366 43.2986 23.2369H42.6832H42.0678C42.0678 23.4031 42.1014 23.5625 42.1611 23.7116L42.7325 23.4831ZM42.6832 23.2369L43.2973 23.2772L44.2819 8.2618L43.6678 8.22154L43.0538 8.18127L42.0692 23.1967L42.6832 23.2369ZM43.6678 8.22154L44.2814 8.26873C44.2845 8.22849 44.288 8.33916 44.1698 8.44748C44.0287 8.57688 43.8765 8.56048 43.8531 8.55623L43.9632 7.95077L44.0733 7.34531C43.8694 7.30824 43.5778 7.32055 43.3382 7.54021C43.1215 7.73879 43.0676 8.00125 43.0543 8.17434L43.6678 8.22154ZM43.9632 7.95077L43.9121 8.56403C43.9611 8.56811 44.0694 8.5965 44.2455 8.7223L44.6032 8.22154L44.9609 7.72078C44.6775 7.51837 44.3592 7.36625 44.0143 7.33751L43.9632 7.95077ZM44.6032 8.22154L44.2619 8.73357C44.4545 8.86201 44.6196 9.01462 44.7593 9.1925L45.2432 8.81231L45.7271 8.43211C45.5059 8.15051 45.2442 7.90927 44.9446 7.70951L44.6032 8.22154ZM45.2432 8.81231L44.7735 9.20981C44.8348 9.28229 44.8616 9.33142 44.8721 9.35669C44.8814 9.37911 44.8742 9.37302 44.8765 9.34736L45.4894 9.40308L46.1022 9.45879C46.14 9.04378 45.9435 8.68718 45.713 8.4148L45.2432 8.81231ZM60.4417 9.35385L59.8639 9.142L59.8576 9.15933L59.8523 9.17702L60.4417 9.35385ZM60.9832 7.87692L61.561 8.08877L61.5616 8.08723L60.9832 7.87692ZM61.3771 7.70461L61.1825 8.28842L61.2102 8.29766L61.2387 8.30424L61.3771 7.70461ZM62.0417 8.07385L61.6412 8.54108L61.6589 8.55628L61.6778 8.5701L62.0417 8.07385ZM62.6078 8.68923L62.0735 8.99454L62.0867 9.01764L62.1019 9.03951L62.6078 8.68923ZM62.7555 9.25538L63.3333 9.46723L63.3397 9.4499L63.345 9.43221L62.7555 9.25538ZM62.214 10.7323L61.6362 10.5205L61.6357 10.522L62.214 10.7323ZM61.7955 10.9292L61.6009 11.513L61.6287 11.5223L61.6572 11.5289L61.7955 10.9292ZM61.1555 10.56L60.755 11.0272L60.765 11.0358L60.7753 11.0439L61.1555 10.56ZM60.5894 9.94461L60.0717 10.2774L60.0774 10.2862L60.0834 10.2949L60.5894 9.94461ZM55.3955 23.3108L54.8175 23.0996L54.8113 23.1166L54.8061 23.1339L55.3955 23.3108ZM59.334 12.5292L59.912 12.7404L59.9123 12.7395L59.334 12.5292ZM59.7278 12.3569L59.5332 12.9407L59.561 12.95L59.5895 12.9565L59.7278 12.3569ZM60.3925 12.7262L59.992 13.1934L60.0019 13.2019L60.0123 13.21L60.3925 12.7262ZM60.9586 13.3415L60.441 13.6743L60.4467 13.6832L60.4526 13.6918L60.9586 13.3415ZM61.0817 13.9077L60.5103 13.6791L60.5066 13.6884L60.5032 13.6977L61.0817 13.9077ZM57.1678 24.6892L57.7462 24.8995L57.7463 24.8992L57.1678 24.6892ZM56.7494 24.8615L56.9304 24.2734L56.9146 24.2685L56.8986 24.2645L56.7494 24.8615ZM56.0848 24.4923L56.4692 24.0118L56.465 24.0084L56.0848 24.4923ZM55.5432 23.9015L56.0674 23.579L56.0609 23.5688L55.5432 23.9015ZM60.4417 9.35385L61.0195 9.56569L61.561 8.08877L60.9832 7.87692L60.4055 7.66507L59.8639 9.142L60.4417 9.35385ZM60.9832 7.87692L61.5616 8.08723C61.5572 8.09924 61.5134 8.20284 61.3776 8.26225C61.2523 8.31707 61.1645 8.28244 61.1825 8.28842L61.3771 7.70461L61.5717 7.12081C61.3927 7.06114 61.1409 7.02241 60.8843 7.13467C60.6172 7.25152 60.4749 7.47409 60.4049 7.66662L60.9832 7.87692ZM61.3771 7.70461L61.2387 8.30424C61.3254 8.32426 61.4596 8.3854 61.6412 8.54108L62.0417 8.07385L62.4422 7.60661C62.1643 7.36844 61.8554 7.18343 61.5154 7.10499L61.3771 7.70461ZM62.0417 8.07385L61.6778 8.5701C61.865 8.70739 61.9911 8.85033 62.0735 8.99454L62.6078 8.68923L63.1421 8.38391C62.962 8.06864 62.7107 7.80132 62.4056 7.5776L62.0417 8.07385ZM62.6078 8.68923L62.1019 9.03951C62.1475 9.10534 62.1586 9.14026 62.1601 9.1461C62.1605 9.14784 62.1586 9.14119 62.1586 9.12769C62.1586 9.11369 62.1607 9.09659 62.1661 9.07855L62.7555 9.25538L63.345 9.43221C63.471 9.01212 63.3121 8.62531 63.1138 8.33895L62.6078 8.68923ZM62.7555 9.25538L62.1778 9.04353L61.6362 10.5205L62.214 10.7323L62.7918 10.9442L63.3333 9.46723L62.7555 9.25538ZM62.214 10.7323L61.6357 10.522C61.644 10.4992 61.6866 10.4126 61.7981 10.3601C61.8963 10.3139 61.9613 10.3359 61.9339 10.3296L61.7955 10.9292L61.6572 11.5289C61.8431 11.5718 62.0845 11.5856 62.3222 11.4737C62.5732 11.3556 62.7184 11.1459 62.7923 10.9426L62.214 10.7323ZM61.7955 10.9292L61.9901 10.3454C61.8816 10.3093 61.7307 10.2293 61.5357 10.0761L61.1555 10.56L60.7753 11.0439C61.0398 11.2517 61.3156 11.4179 61.6009 11.513L61.7955 10.9292ZM61.1555 10.56L61.556 10.0928C61.3598 9.92461 61.2086 9.75785 61.0953 9.59433L60.5894 9.94461L60.0834 10.2949C60.2656 10.558 60.4917 10.8015 60.755 11.0272L61.1555 10.56ZM60.5894 9.94461L61.107 9.61184C61.0578 9.5352 61.0425 9.49061 61.0387 9.47536C61.0359 9.4643 61.0438 9.48855 61.0311 9.53067L60.4417 9.35385L59.8523 9.17702C59.7273 9.59367 59.8839 9.98518 60.0717 10.2774L60.5894 9.94461ZM55.3955 23.3108L55.9736 23.5219L59.912 12.7404L59.334 12.5292L58.756 12.3181L54.8175 23.0996L55.3955 23.3108ZM59.334 12.5292L59.9123 12.7395C59.908 12.7515 59.8641 12.8551 59.7283 12.9146C59.603 12.9694 59.5153 12.9348 59.5332 12.9407L59.7278 12.3569L59.9224 11.7731C59.7435 11.7135 59.4916 11.6747 59.235 11.787C58.968 11.9038 58.8257 12.1264 58.7557 12.3189L59.334 12.5292ZM59.7278 12.3569L59.5895 12.9565C59.6762 12.9766 59.8104 13.0377 59.992 13.1934L60.3925 12.7262L60.7929 12.2589C60.5151 12.0207 60.2061 11.8357 59.8662 11.7573L59.7278 12.3569ZM60.3925 12.7262L60.0123 13.21C60.1919 13.3512 60.3329 13.5061 60.441 13.6743L60.9586 13.3415L61.4763 13.0088C61.289 12.7174 61.0525 12.4622 60.7727 12.2423L60.3925 12.7262ZM60.9586 13.3415L60.4526 13.6918C60.4733 13.7216 60.4854 13.7438 60.4923 13.7584C60.4991 13.773 60.4997 13.7779 60.4988 13.7738C60.4978 13.7692 60.4957 13.7563 60.497 13.7372C60.4984 13.7176 60.503 13.6975 60.5103 13.6791L61.0817 13.9077L61.6531 14.1362C61.8271 13.7011 61.671 13.2894 61.4646 12.9913L60.9586 13.3415ZM61.0817 13.9077L60.5032 13.6977L56.5894 24.4792L57.1678 24.6892L57.7463 24.8992L61.6601 14.1177L61.0817 13.9077ZM57.1678 24.6892L56.5895 24.4789C56.5986 24.4539 56.6481 24.3528 56.7797 24.2987C56.8924 24.2523 56.9638 24.2837 56.9304 24.2734L56.7494 24.8615L56.5684 25.4497C56.7483 25.505 56.9961 25.5406 57.2483 25.4367C57.5194 25.3251 57.6714 25.1051 57.7462 24.8995L57.1678 24.6892ZM56.7494 24.8615L56.8986 24.2645C56.8219 24.2453 56.6806 24.1809 56.4692 24.0118L56.0848 24.4923L55.7003 24.9728C55.9813 25.1976 56.283 25.3793 56.6001 25.4585L56.7494 24.8615ZM56.0848 24.4923L56.465 24.0084C56.283 23.8655 56.1548 23.7211 56.0673 23.579L55.5432 23.9015L55.0191 24.2241C55.1942 24.5086 55.427 24.7581 55.7046 24.9762L56.0848 24.4923ZM55.5432 23.9015L56.0609 23.5688C56.0116 23.4921 55.9964 23.4475 55.9925 23.4323C55.9898 23.4212 55.9976 23.4455 55.985 23.4876L55.3955 23.3108L54.8061 23.1339C54.6811 23.5506 54.8377 23.9421 55.0256 24.2343L55.5432 23.9015ZM71.2923 7.75385L71.8705 7.96431L71.8706 7.96415L71.2923 7.75385ZM68.7569 14.72L68.1786 14.5095L69.247 15.0921L68.7569 14.72ZM70.7753 12.8L71.0862 13.3311V13.3311L70.7753 12.8ZM74.3446 13.0215L73.8683 13.4112V13.4112L74.3446 13.0215ZM75.1077 15.2862L74.4937 15.3278V15.3278L75.1077 15.2862ZM74.5169 18.6585L75.0956 18.8678L75.0961 18.8664L74.5169 18.6585ZM72.2769 22.4L71.838 21.9687L71.8379 21.9687L72.2769 22.4ZM69.1753 24.4431L68.9611 23.8662L68.9539 23.8689L69.1753 24.4431ZM64.8677 24.8123L64.4832 25.2928L64.4907 25.2988L64.4984 25.3046L64.8677 24.8123ZM64.2277 24.1231L63.7156 24.4645L63.7205 24.4717L64.2277 24.1231ZM64.0553 23.5569L63.521 23.2516L63.4965 23.2945L63.4791 23.3408L64.0553 23.5569ZM67.7723 22.7446L67.5467 22.1721V22.1721L67.7723 22.7446ZM70.6769 20.7508L70.2337 20.3237L70.2297 20.328L70.6769 20.7508ZM72.7446 17.28L72.1688 17.0625L72.1657 17.0713L72.7446 17.28ZM72.7446 15.4338L72.2016 15.7234L72.2053 15.7304L72.2092 15.7372L72.7446 15.4338ZM69.9877 15.2369L69.6533 14.7202L69.6463 14.7249L69.9877 15.2369ZM68.3384 16.9846L68.8406 17.3403L68.844 17.3354L68.3384 16.9846ZM66.763 20.1846L67.3405 20.3974L67.341 20.396L66.763 20.1846ZM66.0738 22.0554L65.4964 21.8426L65.4738 21.9038L65.4646 21.9684L66.0738 22.0554ZM65.1138 21.9569L64.7294 22.4375L64.7468 22.4514L64.7652 22.464L65.1138 21.9569ZM64.4738 21.2923L63.9618 21.6337L63.9694 21.6451L63.9776 21.6562L64.4738 21.2923ZM64.3261 20.6769L64.8975 20.9055L64.9012 20.8963L64.9045 20.887L64.3261 20.6769ZM69.52 6.37538L68.9543 6.13297L68.9475 6.14897L68.9415 6.16532L69.52 6.37538ZM70.48 6.49846L70.0955 6.979L70.1129 6.99293L70.1313 7.00556L70.48 6.49846ZM71.12 7.13846L70.6079 7.47981L70.6212 7.49978L70.6361 7.51866L71.12 7.13846ZM71.2923 7.75385L70.714 7.54338L68.1786 14.5095L68.7569 14.72L69.3352 14.9305L71.8705 7.96431L71.2923 7.75385ZM68.7569 14.72L69.247 15.0921C69.8903 14.2449 70.506 13.6707 71.0862 13.3311L70.7753 12.8L70.4645 12.2689C69.6991 12.7169 68.9691 13.4228 68.2668 14.3479L68.7569 14.72ZM70.7753 12.8L71.0862 13.3311C71.7004 12.9716 72.2078 12.8246 72.6215 12.8246V12.2092V11.5938C71.9193 11.5938 71.1959 11.8407 70.4645 12.2689L70.7753 12.8ZM72.6215 12.2092V12.8246C73.1444 12.8246 73.5432 13.0139 73.8683 13.4112L74.3446 13.0215L74.8209 12.6319C74.2598 11.9461 73.5099 11.5938 72.6215 11.5938V12.2092ZM74.3446 13.0215L73.8683 13.4112C74.2045 13.8222 74.4334 14.4391 74.4937 15.3278L75.1077 15.2862L75.7216 15.2445C75.6506 14.1968 75.3708 13.304 74.8209 12.6319L74.3446 13.0215ZM75.1077 15.2862L74.4937 15.3278C74.5518 16.1845 74.3792 17.2206 73.9377 18.4505L74.5169 18.6585L75.0961 18.8664C75.5735 17.5364 75.7948 16.3242 75.7216 15.2445L75.1077 15.2862ZM74.5169 18.6585L73.9382 18.4491C73.4036 19.9271 72.6988 21.0927 71.838 21.9687L72.2769 22.4L72.7158 22.8313C73.7257 21.8037 74.5143 20.4749 75.0956 18.8678L74.5169 18.6585ZM72.2769 22.4L71.8379 21.9687C70.9777 22.8443 70.0193 23.4732 68.9611 23.8662L69.1753 24.4431L69.3896 25.02C70.6289 24.5597 71.7381 23.8265 72.7159 22.8313L72.2769 22.4ZM69.1753 24.4431L68.9539 23.8689C67.8768 24.2844 66.754 24.4923 65.5815 24.4923V25.1077V25.7231C66.9034 25.7231 68.1765 25.4879 69.3968 25.0172L69.1753 24.4431ZM65.5815 25.1077V24.4923C65.5559 24.4923 65.4469 24.4775 65.2369 24.32L64.8677 24.8123L64.4984 25.3046C64.8135 25.541 65.1805 25.7231 65.5815 25.7231V25.1077ZM64.8677 24.8123L65.2521 24.3318C65.0536 24.173 64.8814 23.9878 64.7348 23.7744L64.2277 24.1231L63.7205 24.4717C63.9349 24.7835 64.1894 25.0578 64.4832 25.2928L64.8677 24.8123ZM64.2277 24.1231L64.7397 23.7817C64.7093 23.7361 64.6877 23.699 64.6729 23.6699C64.6579 23.6405 64.652 23.6235 64.6502 23.6177C64.6453 23.6014 64.6704 23.6693 64.6315 23.773L64.0553 23.5569L63.4791 23.3408C63.391 23.5758 63.4203 23.8037 63.4728 23.9761C63.5254 24.149 63.6151 24.3137 63.7156 24.4644L64.2277 24.1231ZM64.0553 23.5569L64.5896 23.8622C64.5708 23.8952 64.5336 23.9387 64.4763 23.9695C64.4224 23.9986 64.3812 24 64.3753 24V23.3846V22.7692C64.0379 22.7692 63.7108 22.9195 63.521 23.2516L64.0553 23.5569ZM64.3753 23.3846V24C65.6329 24 66.8418 23.7726 67.9978 23.3172L67.7723 22.7446L67.5467 22.1721C66.5366 22.57 65.4809 22.7692 64.3753 22.7692V23.3846ZM67.7723 22.7446L67.9978 23.3172C69.1704 22.8552 70.213 22.1372 71.1241 21.1735L70.6769 20.7508L70.2297 20.328C69.4341 21.1695 68.5403 21.7807 67.5467 22.1721L67.7723 22.7446ZM70.6769 20.7508L71.12 21.1778C72.0605 20.2018 72.7911 18.9657 73.3235 17.4887L72.7446 17.28L72.1657 17.0713C71.6806 18.4169 71.0327 19.4946 70.2338 20.3238L70.6769 20.7508ZM72.7446 17.28L73.3203 17.4975C73.6371 16.6588 73.6807 15.8376 73.28 15.1305L72.7446 15.4338L72.2092 15.7372C72.3664 16.0147 72.41 16.4243 72.1689 17.0625L72.7446 17.28ZM72.7446 15.4338L73.2876 15.1443C73.1111 14.8133 72.8666 14.5383 72.5458 14.3496C72.226 14.1614 71.8659 14.08 71.4892 14.08V14.6954V15.3108C71.6869 15.3108 71.8232 15.3524 71.9218 15.4104C72.0195 15.4679 72.1155 15.5621 72.2016 15.7234L72.7446 15.4338ZM71.4892 14.6954V14.08C70.8821 14.08 70.2643 14.3249 69.6533 14.7203L69.9877 15.2369L70.322 15.7536C70.8269 15.4269 71.2101 15.3108 71.4892 15.3108V14.6954ZM69.9877 15.2369L69.6463 14.7249C69.0164 15.1448 68.4148 15.795 67.8328 16.6338L68.3384 16.9846L68.844 17.3354C69.3779 16.566 69.8758 16.0511 70.329 15.749L69.9877 15.2369ZM68.3384 16.9846L67.8363 16.6289C67.2355 17.477 66.688 18.5985 66.1851 19.9732L66.763 20.1846L67.341 20.396C67.8226 19.0794 68.3254 18.0676 68.8406 17.3403L68.3384 16.9846ZM66.763 20.1846L66.1856 19.9719L65.4964 21.8426L66.0738 22.0554L66.6512 22.2681L67.3405 20.3974L66.763 20.1846ZM66.0738 22.0554L65.4646 21.9684C65.4708 21.9252 65.487 21.8673 65.5244 21.8069C65.5626 21.7452 65.6123 21.698 65.6634 21.6654C65.7565 21.6062 65.8259 21.6123 65.803 21.6123V22.2277V22.8431C65.9443 22.8431 66.1408 22.8205 66.3242 22.7038C66.5348 22.5698 66.6518 22.3607 66.683 22.1424L66.0738 22.0554ZM65.803 22.2277V21.6123C65.786 21.6123 65.6803 21.5996 65.4624 21.4498L65.1138 21.9569L64.7652 22.464C65.0724 22.6753 65.4262 22.8431 65.803 22.8431V22.2277ZM65.1138 21.9569L65.4982 21.4764C65.2929 21.3121 65.1175 21.1295 64.9701 20.9284L64.4738 21.2923L63.9776 21.6562C64.1911 21.9474 64.4424 22.2079 64.7294 22.4375L65.1138 21.9569ZM64.4738 21.2923L64.9858 20.951C64.9585 20.91 64.9404 20.8772 64.9286 20.8524C64.9168 20.8275 64.913 20.8137 64.9122 20.8102C64.9115 20.8071 64.914 20.8163 64.9132 20.835C64.9123 20.8547 64.9079 20.8794 64.8975 20.9055L64.3261 20.6769L63.7547 20.4484C63.5743 20.8996 63.7613 21.333 63.9618 21.6337L64.4738 21.2923ZM64.3261 20.6769L64.9045 20.887L70.0984 6.58545L69.52 6.37538L68.9415 6.16532L63.7477 20.4669L64.3261 20.6769ZM69.52 6.37538L70.0856 6.6178C70.0635 6.66931 70.0166 6.73348 69.9408 6.77771C69.872 6.81783 69.819 6.81846 69.8153 6.81846V6.20308V5.58769C69.664 5.58769 69.4879 5.61703 69.3207 5.7146C69.1464 5.81626 69.0256 5.96658 68.9543 6.13297L69.52 6.37538ZM69.8153 6.20308V6.81846C69.8102 6.81846 69.8295 6.81713 69.8793 6.83927C69.93 6.86181 70.002 6.90418 70.0955 6.979L70.48 6.49846L70.8644 6.01793C70.5703 5.78264 70.2141 5.58769 69.8153 5.58769V6.20308ZM70.48 6.49846L70.1313 7.00556C70.3344 7.14517 70.4905 7.30367 70.6079 7.47981L71.12 7.13846L71.632 6.79711C71.4212 6.48094 71.1507 6.21278 70.8286 5.99136L70.48 6.49846ZM71.12 7.13846L70.6361 7.51866C70.6638 7.554 70.6815 7.58166 70.6924 7.60154C70.7033 7.62139 70.7059 7.63089 70.7058 7.63054C70.7056 7.62961 70.7028 7.61896 70.7032 7.60075C70.7036 7.58193 70.7072 7.56195 70.7139 7.54354L71.2923 7.75385L71.8706 7.96415C72.0418 7.49337 71.8428 7.06233 71.6038 6.75826L71.12 7.13846ZM87.3405 22.9908L86.9713 22.4985L86.9592 22.5075L86.9476 22.5172L87.3405 22.9908ZM85.1252 24.4677L84.8551 23.9147V23.9147L85.1252 24.4677ZM80.8667 24.5169L80.5525 25.0461L80.5596 25.0502L80.8667 24.5169ZM79.6852 23.2862L79.1279 23.5473L79.1329 23.558L79.1383 23.5684L79.6852 23.2862ZM79.2421 21.5631L79.8556 21.5146L79.2421 21.5631ZM79.3405 19.6923L79.9457 19.8038L79.9462 19.801L79.3405 19.6923ZM79.8328 17.92L80.4054 18.1456L80.407 18.1415L79.8328 17.92ZM81.6298 14.9415L81.1732 14.5289L81.1728 14.5294L81.6298 14.9415ZM84.0913 12.9477L83.8001 12.4055L83.7959 12.4078L84.0913 12.9477ZM87.9559 12.5046L87.7377 13.08L87.7464 13.0833L87.7553 13.0864L87.9559 12.5046ZM89.1867 13.2677L88.7515 13.7028L88.7619 13.7132L88.7727 13.723L89.1867 13.2677ZM89.9005 14.5231L89.3003 14.6586L89.3029 14.6702L89.3059 14.6816L89.9005 14.5231ZM89.7036 16.2708L89.1303 16.047L89.1271 16.0556L89.7036 16.2708ZM87.3159 19.2738L87.6852 19.7662L87.6895 19.7629L87.3159 19.2738ZM82.2698 21.1692L82.1649 20.5628L82.1505 20.5653L82.1363 20.5685L82.2698 21.1692ZM81.7036 21.0215L81.3811 21.5456L81.3896 21.5509L81.3983 21.5558L81.7036 21.0215ZM81.1375 20.5538L81.5928 20.1399L80.8681 19.3428L80.5496 20.3719L81.1375 20.5538ZM80.9898 22.9662L80.4856 23.3191L80.5061 23.3483L80.5298 23.375L80.9898 22.9662ZM81.4082 23.2369L81.2747 23.8377L81.3105 23.8456L81.347 23.8493L81.4082 23.2369ZM83.6236 22.7938L83.8773 23.3546L83.8882 23.3495L83.6236 22.7938ZM85.7405 21.4154L86.1302 21.8917L86.1381 21.8852L86.1458 21.8785L85.7405 21.4154ZM86.2575 21.4154L85.9657 21.9572L85.9898 21.9702L86.015 21.981L86.2575 21.4154ZM86.9221 21.8831L86.4869 22.3182V22.3182L86.9221 21.8831ZM87.3898 22.5231L86.831 22.781V22.781L87.3898 22.5231ZM81.5559 19.2985L80.9855 19.0676L80.9782 19.0855L80.9721 19.1039L81.5559 19.2985ZM81.5313 19.3723L80.9475 19.1777L80.6094 20.1919L81.6562 19.9749L81.5313 19.3723ZM85.1005 18.1662L85.3792 18.7148L85.3826 18.7131L85.1005 18.1662ZM87.6359 16.4923L88.0469 16.9503L88.0476 16.9497L87.6359 16.4923ZM88.8913 14.9415L88.3409 14.6663L88.3303 14.6875L88.3214 14.7094L88.8913 14.9415ZM88.9159 14.6215H88.3005V14.6556L88.3043 14.6895L88.9159 14.6215ZM88.6698 14.1785L88.2581 14.6359L88.2714 14.6478L88.2853 14.659L88.6698 14.1785ZM85.9621 14.4L85.6986 13.8438L85.6929 13.8466L85.9621 14.4ZM84.1898 15.6062L84.5969 16.0676L84.5978 16.0668L84.1898 15.6062ZM87.3405 22.9908L86.9476 22.5172C86.2042 23.1341 85.5066 23.5965 84.8551 23.9147L85.1252 24.4677L85.3952 25.0207C86.155 24.6496 86.9344 24.1275 87.7335 23.4643L87.3405 22.9908ZM85.1252 24.4677L84.8551 23.9147C84.2261 24.2219 83.6041 24.3692 82.9836 24.3692V24.9846V25.6C83.8073 25.6 84.613 25.4027 85.3952 25.0207L85.1252 24.4677ZM82.9836 24.9846V24.3692C82.1814 24.3692 81.5923 24.2246 81.1737 23.9836L80.8667 24.5169L80.5596 25.0502C81.2241 25.4328 82.0463 25.6 82.9836 25.6V24.9846ZM80.8667 24.5169L81.1809 23.9878C80.748 23.7308 80.4381 23.4032 80.232 23.0039L79.6852 23.2862L79.1383 23.5684C79.4573 24.1865 79.9351 24.6795 80.5525 25.0461L80.8667 24.5169ZM79.6852 23.2862L80.2424 23.025C80.03 22.5719 79.8994 22.0703 79.8556 21.5146L79.2421 21.5631L78.6286 21.6115C78.6832 22.303 78.848 22.9502 79.1279 23.5473L79.6852 23.2862ZM79.2421 21.5631L79.8556 21.5146C79.8106 20.9452 79.8404 20.3754 79.9457 19.8038L79.3405 19.6923L78.7353 19.5808C78.6109 20.2564 78.5751 20.9337 78.6286 21.6115L79.2421 21.5631ZM79.3405 19.6923L79.9462 19.801C80.0548 19.1964 80.2086 18.6452 80.4054 18.1456L79.8328 17.92L79.2603 17.6944C79.0305 18.2778 78.8561 18.9082 78.7348 19.5836L79.3405 19.6923ZM79.8328 17.92L80.407 18.1415C80.8255 17.0564 81.3867 16.1298 82.0867 15.3537L81.6298 14.9415L81.1728 14.5294C80.3631 15.4271 79.7263 16.4861 79.2587 17.6985L79.8328 17.92ZM81.6298 14.9415L82.0863 15.3542C82.8186 14.5439 83.5862 13.9255 84.3867 13.4875L84.0913 12.9477L83.7959 12.4078C82.8569 12.9216 81.9835 13.6325 81.1732 14.5289L81.6298 14.9415ZM84.0913 12.9477L84.3825 13.4898C85.2077 13.0467 85.9277 12.8492 86.5528 12.8492V12.2338V11.6185C85.6682 11.6185 84.7472 11.8969 83.8002 12.4055L84.0913 12.9477ZM86.5528 12.2338V12.8492C86.9301 12.8492 87.324 12.9231 87.7377 13.08L87.9559 12.5046L88.1742 11.9292C87.636 11.7251 87.0945 11.6185 86.5528 11.6185V12.2338ZM87.9559 12.5046L87.7553 13.0864C88.1459 13.2211 88.4752 13.4265 88.7515 13.7028L89.1867 13.2677L89.6218 12.8325C89.209 12.4197 88.7177 12.1164 88.1565 11.9228L87.9559 12.5046ZM89.1867 13.2677L88.7727 13.723C89.0337 13.9603 89.2112 14.2641 89.3003 14.6586L89.9005 14.5231L90.5008 14.3875C90.3601 13.7646 90.0617 13.2315 89.6006 12.8123L89.1867 13.2677ZM89.9005 14.5231L89.3059 14.6816C89.392 15.0045 89.3646 15.4468 89.1303 16.0471L89.7036 16.2708L90.2769 16.4945C90.5678 15.7491 90.6716 15.0263 90.4951 14.3645L89.9005 14.5231ZM89.7036 16.2708L89.1271 16.0556C88.7669 17.021 88.0562 17.934 86.9424 18.7848L87.3159 19.2738L87.6895 19.7629C88.9388 18.8086 89.8199 17.7195 90.2802 16.4859L89.7036 16.2708ZM87.3159 19.2738L86.9467 18.7815C85.8722 19.5874 84.2955 20.1944 82.1649 20.5628L82.2698 21.1692L82.3746 21.7756C84.6092 21.3892 86.3966 20.7326 87.6852 19.7662L87.3159 19.2738ZM82.2698 21.1692L82.1363 20.5685C82.1813 20.5585 82.1991 20.5683 82.1728 20.5615C82.1458 20.5544 82.0923 20.5348 82.0089 20.4872L81.7036 21.0215L81.3983 21.5558C81.6701 21.7111 82.0284 21.8533 82.4033 21.77L82.2698 21.1692ZM81.7036 21.0215L82.0261 20.4974C81.8607 20.3956 81.717 20.2765 81.5928 20.1399L81.1375 20.5538L80.6821 20.9678C80.8861 21.1922 81.1199 21.3849 81.3811 21.5456L81.7036 21.0215ZM81.1375 20.5538L80.5496 20.3719C80.3314 21.0767 80.2021 21.6816 80.2021 22.1538H80.8175H81.4328C81.4328 21.8712 81.5168 21.4095 81.7253 20.7358L81.1375 20.5538ZM80.8175 22.1538H80.2021C80.2021 22.5621 80.2581 22.9941 80.4856 23.3191L80.9898 22.9662L81.4939 22.6133C81.4983 22.6195 81.4802 22.5957 81.4625 22.5123C81.4453 22.4309 81.4328 22.314 81.4328 22.1538H80.8175ZM80.9898 22.9662L80.5298 23.375C80.7209 23.5899 80.9671 23.7693 81.2747 23.8377L81.4082 23.2369L81.5417 22.6362C81.554 22.6389 81.5212 22.6378 81.4497 22.5573L80.9898 22.9662ZM81.4082 23.2369L81.347 23.8493C81.5199 23.8665 81.6741 23.8769 81.8021 23.8769V23.2615V22.6462C81.7331 22.6462 81.6248 22.6401 81.4695 22.6246L81.4082 23.2369ZM81.8021 23.2615V23.8769C82.4444 23.8769 83.1408 23.6877 83.8773 23.3545L83.6236 22.7938L83.37 22.2332C82.728 22.5236 82.21 22.6462 81.8021 22.6462V23.2615ZM83.6236 22.7938L83.8882 23.3495C84.6308 22.9958 85.378 22.5072 86.1302 21.8917L85.7405 21.4154L85.3509 20.9391C84.659 21.5051 83.9949 21.9354 83.359 22.2382L83.6236 22.7938ZM85.7405 21.4154L86.1458 21.8785C86.1275 21.8945 86.1002 21.9128 86.0645 21.9263C86.0286 21.9399 85.9949 21.9446 85.9682 21.9446C85.9196 21.9446 85.9144 21.9296 85.9657 21.9572L86.2575 21.4154L86.5492 20.8736C86.3872 20.7863 86.1892 20.7138 85.9682 20.7138C85.731 20.7138 85.5116 20.798 85.3353 20.9523L85.7405 21.4154ZM86.2575 21.4154L86.015 21.981C86.1596 22.043 86.3178 22.1491 86.4869 22.3182L86.9221 21.8831L87.3572 21.4479C87.0997 21.1904 86.8148 20.9847 86.4999 20.8498L86.2575 21.4154ZM86.9221 21.8831L86.4869 22.3182C86.6628 22.4941 86.7702 22.6493 86.831 22.781L87.3898 22.5231L87.9485 22.2652C87.8124 21.9702 87.608 21.6987 87.3572 21.4479L86.9221 21.8831ZM87.3898 22.5231L86.831 22.781C86.8553 22.8336 86.8315 22.8097 86.8393 22.7356C86.8437 22.6941 86.8574 22.6452 86.8853 22.5971C86.9128 22.5497 86.9457 22.5176 86.9713 22.4985L87.3405 22.9908L87.7098 23.4831C87.9051 23.3366 88.0363 23.1213 88.0633 22.8644C88.0875 22.6344 88.0227 22.4259 87.9485 22.2652L87.3898 22.5231ZM81.5559 19.2985L80.9721 19.1039L80.9475 19.1777L81.5313 19.3723L82.1151 19.5669L82.1397 19.4931L81.5559 19.2985ZM81.5313 19.3723L81.6562 19.9749C83.0457 19.6868 84.2887 19.2687 85.3792 18.7148L85.1005 18.1662L84.8218 17.6175C83.8446 18.1138 82.7082 18.4999 81.4064 18.7697L81.5313 19.3723ZM85.1005 18.1662L85.3826 18.7131C86.4634 18.1558 87.3564 17.57 88.0469 16.9503L87.6359 16.4923L87.2249 16.0343C86.6354 16.5633 85.8382 17.0934 84.8185 17.6192L85.1005 18.1662ZM87.6359 16.4923L88.0476 16.9497C88.7242 16.3408 89.2272 15.748 89.4612 15.1737L88.8913 14.9415L88.3214 14.7094C88.1944 15.0212 87.8605 15.4623 87.2243 16.0349L87.6359 16.4923ZM88.8913 14.9415L89.4417 15.2167C89.5592 14.9817 89.5461 14.7202 89.5275 14.5536L88.9159 14.6215L88.3043 14.6895C88.3069 14.713 88.3081 14.7311 88.3085 14.7445C88.309 14.7579 88.3086 14.7644 88.3085 14.7651C88.3084 14.766 88.309 14.7575 88.3127 14.7421C88.3163 14.7268 88.3242 14.6998 88.3409 14.6663L88.8913 14.9415ZM88.9159 14.6215H89.5313C89.5313 14.2201 89.3197 13.9104 89.0542 13.6979L88.6698 14.1785L88.2853 14.659C88.3196 14.6864 88.3225 14.6975 88.3164 14.6865C88.3132 14.6808 88.3088 14.6711 88.3054 14.6581C88.302 14.6451 88.3005 14.6324 88.3005 14.6215H88.9159ZM88.6698 14.1785L89.0814 13.721C88.8959 13.554 88.6687 13.4642 88.4547 13.4135C88.2371 13.3619 87.9931 13.3415 87.7344 13.3415V13.9569V14.5723C87.9351 14.5723 88.0768 14.5888 88.171 14.6111C88.2688 14.6343 88.2796 14.6552 88.2581 14.6359L88.6698 14.1785ZM87.7344 13.9569V13.3415C87.0664 13.3415 86.3855 13.5185 85.6986 13.8439L85.9621 14.4L86.2255 14.9561C86.7858 14.6907 87.2865 14.5723 87.7344 14.5723V13.9569ZM85.9621 14.4L85.6929 13.8466C85.0291 14.1695 84.3924 14.6047 83.7817 15.1455L84.1898 15.6062L84.5978 16.0668C85.1359 15.5902 85.6807 15.2212 86.2313 14.9534L85.9621 14.4ZM84.1898 15.6062L83.7826 15.1447C83.188 15.6694 82.6486 16.2704 82.1637 16.9457L82.6636 17.3046L83.1635 17.6635C83.5976 17.0589 84.0756 16.5276 84.5969 16.0676L84.1898 15.6062ZM82.6636 17.3046L82.1637 16.9457C81.6774 17.6231 81.2839 18.3304 80.9855 19.0676L81.5559 19.2985L82.1264 19.5293C82.3859 18.8881 82.7308 18.2662 83.1635 17.6635L82.6636 17.3046ZM96.9834 13.7846L97.5977 13.8215L97.5988 13.8031V13.7846H96.9834ZM96.4665 22.4L95.8522 22.3631L96.9894 22.7244L96.4665 22.4ZM102.62 12.48L102.108 12.1386L102.103 12.147L102.097 12.1556L102.62 12.48ZM103.088 12.3815L103.309 11.8072V11.8072L103.088 12.3815ZM103.728 12.8L103.311 13.2522L103.319 13.2599L103.328 13.2672L103.728 12.8ZM104.245 13.44L103.695 13.7152L103.707 13.7394L103.721 13.7625L104.245 13.44ZM104.319 13.9569L103.797 13.6308L103.796 13.633L104.319 13.9569ZM96.5157 26.56L97.0349 26.8904L97.0389 26.8839L96.5157 26.56ZM95.2603 28.1846L94.8049 27.7706L94.7981 27.7784L95.2603 28.1846ZM93.5865 29.5385L93.2841 29.0024L93.2782 29.0059L93.5865 29.5385ZM90.8296 29.8092L91.2098 29.3253L91.1987 29.3167L91.1873 29.3085L90.8296 29.8092ZM90.2388 29.2185L90.7396 28.8608V28.8608L90.2388 29.2185ZM89.968 28.6031L90.5809 28.5474L90.5804 28.5418L89.968 28.6031ZM91.9619 27.8646L91.6682 27.3237L91.6566 27.3303L91.9619 27.8646ZM93.5619 26.6338L93.1267 26.1986L93.1197 26.2059L93.5619 26.6338ZM94.8173 25.0831L95.3391 25.4092L95.3411 25.4061L94.8173 25.0831ZM95.728 23.6062L96.2518 23.9292L96.5957 23.3715L96.0176 23.0632L95.728 23.6062ZM94.9896 23.0154L94.5281 23.4225L94.5343 23.4295L94.5406 23.4363L94.9896 23.0154ZM94.6203 22.2769L94.0061 22.2392L94.005 22.2581V22.2769H94.6203ZM95.2111 12.6523L95.8253 12.69L95.8265 12.6712V12.6523H95.2111ZM95.4819 12.3323L95.4262 12.9452L95.4308 12.9456L95.4819 12.3323ZM96.1219 12.6031L96.4796 12.1023V12.1023L96.1219 12.6031ZM96.7127 13.1938L96.2119 13.5515L96.2266 13.5721L96.2429 13.5913L96.7127 13.1938ZM96.9834 13.7846L96.3691 13.7478L95.8522 22.3631L96.4665 22.4L97.0808 22.4369L97.5977 13.8215L96.9834 13.7846ZM96.4665 22.4L96.9894 22.7244L103.143 12.8044L102.62 12.48L102.097 12.1556L95.9436 22.0756L96.4665 22.4ZM102.62 12.48L103.132 12.8214C103.121 12.8384 103.099 12.8661 103.061 12.8926C103.023 12.9199 102.98 12.938 102.938 12.9468C102.86 12.9633 102.825 12.9399 102.867 12.9559L103.088 12.3815L103.309 11.8072C103.137 11.7412 102.919 11.6931 102.684 11.7424C102.43 11.7959 102.236 11.9475 102.108 12.1386L102.62 12.48ZM103.088 12.3815L102.867 12.9559C102.991 13.0036 103.14 13.0944 103.311 13.2522L103.728 12.8L104.145 12.3478C103.89 12.1118 103.612 11.9236 103.309 11.8072L103.088 12.3815ZM103.728 12.8L103.328 13.2672C103.506 13.4201 103.622 13.5707 103.695 13.7152L104.245 13.44L104.795 13.1648C104.638 12.8498 104.41 12.5737 104.129 12.3328L103.728 12.8ZM104.245 13.44L103.721 13.7625C103.76 13.8264 103.756 13.8418 103.753 13.8163C103.75 13.8008 103.749 13.7727 103.756 13.7364C103.763 13.699 103.777 13.6626 103.797 13.6308L104.319 13.9569L104.841 14.2831C105.112 13.8489 104.941 13.3968 104.769 13.1175L104.245 13.44ZM104.319 13.9569L103.796 13.633L95.9925 26.2361L96.5157 26.56L97.0389 26.8839L104.842 14.2809L104.319 13.9569ZM96.5157 26.56L95.9966 26.2296C95.6732 26.7378 95.2769 27.2516 94.805 27.7707L95.2603 28.1846L95.7157 28.5986C96.2284 28.0346 96.669 27.4653 97.0349 26.8904L96.5157 26.56ZM95.2603 28.1846L94.7981 27.7784C94.3687 28.267 93.8651 28.6748 93.2841 29.0025L93.5865 29.5385L93.8889 30.0744C94.5879 29.6801 95.2002 29.1853 95.7226 28.5908L95.2603 28.1846ZM93.5865 29.5385L93.2782 29.0059C92.7569 29.3077 92.1594 29.4646 91.4696 29.4646V30.08V30.6954C92.3552 30.6954 93.1689 30.4913 93.8948 30.071L93.5865 29.5385ZM91.4696 30.08V29.4646C91.4632 29.4646 91.3814 29.4602 91.2098 29.3253L90.8296 29.8092L90.4494 30.2931C90.7372 30.5193 91.0821 30.6954 91.4696 30.6954V30.08ZM90.8296 29.8092L91.1873 29.3085C91.0128 29.1838 90.8642 29.0353 90.7396 28.8608L90.2388 29.2185L89.738 29.5761C89.9416 29.8611 90.1869 30.1064 90.4719 30.31L90.8296 29.8092ZM90.2388 29.2185L90.7396 28.8608C90.6066 28.6747 90.5834 28.5745 90.5809 28.5474L89.968 28.6031L89.3552 28.6588C89.3855 28.9927 89.5428 29.3028 89.738 29.5761L90.2388 29.2185ZM89.968 28.6031L90.5804 28.5418C90.5838 28.5757 90.5841 28.6431 90.5517 28.7239C90.5174 28.8097 90.4601 28.876 90.3996 28.9192C90.3446 28.9585 90.3 28.9699 90.289 28.9724C90.2775 28.975 90.283 28.9723 90.3127 28.9723V28.3569V27.7415C90.146 27.7415 89.8985 27.7647 89.6842 27.9177C89.414 28.1107 89.33 28.4069 89.3557 28.6643L89.968 28.6031ZM90.3127 28.3569V28.9723C90.9693 28.9723 91.6236 28.7667 92.2672 28.3989L91.9619 27.8646L91.6566 27.3303C91.1514 27.619 90.7063 27.7415 90.3127 27.7415V28.3569ZM91.9619 27.8646L92.2555 28.4054C92.8892 28.0614 93.4719 27.6118 94.0041 27.0618L93.5619 26.6338L93.1197 26.2059C92.6673 26.6734 92.1833 27.0442 91.6683 27.3238L91.9619 27.8646ZM93.5619 26.6338L93.997 27.069C94.5335 26.5325 94.9826 25.9796 95.3391 25.4092L94.8173 25.0831L94.2954 24.7569C93.9955 25.2368 93.6077 25.7178 93.1267 26.1987L93.5619 26.6338ZM94.8173 25.0831L95.3411 25.4061L96.2518 23.9292L95.728 23.6062L95.2042 23.2831L94.2935 24.7601L94.8173 25.0831ZM95.728 23.6062L96.0176 23.0632C95.8453 22.9713 95.6513 22.8214 95.4385 22.5945L94.9896 23.0154L94.5406 23.4363C94.8202 23.7345 95.1185 23.9785 95.4384 24.1491L95.728 23.6062ZM94.9896 23.0154L95.451 22.6082C95.3517 22.4957 95.2941 22.4084 95.2631 22.3463C95.2323 22.2847 95.2357 22.2645 95.2357 22.2769H94.6203H94.005C94.005 22.7176 94.25 23.1073 94.5281 23.4225L94.9896 23.0154ZM94.6203 22.2769L95.2346 22.3146L95.8253 12.69L95.2111 12.6523L94.5969 12.6146L94.0061 22.2392L94.6203 22.2769ZM95.2111 12.6523H95.8265C95.8265 12.5959 95.8415 12.6876 95.7486 12.7975C95.6966 12.8589 95.6288 12.9033 95.558 12.9269C95.4927 12.9486 95.4436 12.9467 95.4262 12.9452L95.4819 12.3323L95.5376 11.7194C95.3134 11.6991 95.0213 11.7517 94.809 12.0025C94.6258 12.219 94.5957 12.479 94.5957 12.6523H95.2111ZM95.4819 12.3323L95.4308 12.9456C95.4797 12.9496 95.5881 12.978 95.7642 13.1038L96.1219 12.6031L96.4796 12.1023C96.1962 11.8999 95.8779 11.7478 95.533 11.719L95.4819 12.3323ZM96.1219 12.6031L95.7642 13.1038C95.9387 13.2285 96.0873 13.377 96.2119 13.5515L96.7127 13.1938L97.2134 12.8362C97.0098 12.5512 96.7646 12.3059 96.4796 12.1023L96.1219 12.6031ZM96.7127 13.1938L96.2429 13.5913C96.3068 13.667 96.3401 13.7226 96.3563 13.7579C96.3718 13.7918 96.368 13.7988 96.368 13.7846H96.9834H97.5988C97.5988 13.3973 97.4079 13.0628 97.1824 12.7963L96.7127 13.1938ZM108.461 23.958L108.896 23.5229V23.5229L108.461 23.958ZM108.461 23.328L108.896 23.7631L108.909 23.7504L108.921 23.7368L108.461 23.328ZM109.077 23.944L108.617 23.5352V23.5352L109.077 23.944ZM108.769 24.07V23.4546C108.762 23.4546 108.777 23.4535 108.805 23.4637C108.835 23.4746 108.868 23.4944 108.896 23.5229L108.461 23.958L108.026 24.3931C108.242 24.6093 108.516 24.6854 108.769 24.6854V24.07ZM108.461 23.958L108.896 23.5229C108.93 23.5561 108.949 23.5921 108.958 23.6193C108.967 23.6438 108.965 23.6525 108.965 23.636H108.349H107.734C107.734 23.8842 107.802 24.1692 108.026 24.3931L108.461 23.958ZM108.349 23.636H108.965C108.965 23.6287 108.966 23.6435 108.956 23.6713C108.945 23.7015 108.925 23.7347 108.896 23.7631L108.461 23.328L108.026 22.8929C107.81 23.109 107.734 23.3832 107.734 23.636H108.349ZM108.461 23.328L108.921 23.7368C108.897 23.7641 108.864 23.788 108.827 23.8031C108.793 23.8172 108.77 23.8174 108.769 23.8174V23.202V22.5866C108.494 22.5866 108.212 22.6819 108.001 22.9192L108.461 23.328ZM108.769 23.202V23.8174C108.777 23.8174 108.762 23.8185 108.734 23.8083C108.704 23.7974 108.671 23.7776 108.642 23.7491L109.077 23.314L109.512 22.8789C109.296 22.6627 109.022 22.5866 108.769 22.5866V23.202ZM109.077 23.314L108.642 23.7491C108.609 23.7159 108.589 23.6799 108.58 23.6527C108.572 23.6282 108.574 23.6195 108.574 23.636H109.189H109.805C109.805 23.3878 109.736 23.1028 109.512 22.8789L109.077 23.314ZM109.189 23.636H108.574C108.574 23.6328 108.574 23.6168 108.583 23.5937C108.592 23.5699 108.604 23.5496 108.617 23.5352L109.077 23.944L109.537 24.3528C109.72 24.1468 109.805 23.895 109.805 23.636H109.189ZM109.077 23.944L108.617 23.5352C108.641 23.5079 108.674 23.484 108.711 23.4689C108.746 23.4548 108.769 23.4546 108.769 23.4546V24.07V24.6854C109.044 24.6854 109.326 24.5901 109.537 24.3528L109.077 23.944ZM114.811 23.65L115.121 23.1184V23.1184L114.811 23.65ZM113.495 22.292L112.955 22.5879V22.5879L113.495 22.292ZM113.495 18.386L114.03 18.6894L114.032 18.6856L113.495 18.386ZM114.811 17.056L115.114 17.5914V17.5914L114.811 17.056ZM118.339 16.916L118.077 17.4729L118.086 17.477L118.339 16.916ZM119.543 17.798L119.991 18.2198L120.374 17.8131L120.006 17.3928L119.543 17.798ZM119.319 18.036L118.849 18.4335L119.294 18.9598L119.767 18.4578L119.319 18.036ZM118.605 17.42L118.272 17.9377L118.28 17.9429L118.605 17.42ZM117.737 17.028L117.558 17.617L117.563 17.6184L117.737 17.028ZM114.979 17.336L115.285 17.8697L115.288 17.8679L114.979 17.336ZM113.775 18.54L113.243 18.2305L113.239 18.2378L113.775 18.54ZM113.327 20.318L112.711 20.3095L112.711 20.3179L112.711 20.3264L113.327 20.318ZM113.775 22.138L113.234 22.432L113.238 22.4393L113.775 22.138ZM114.979 23.384L114.665 23.9134L114.669 23.9159L114.979 23.384ZM117.723 23.706L117.885 24.2997L117.893 24.2974L117.901 24.2949L117.723 23.706ZM118.577 23.314L118.91 23.8317L118.914 23.8287L118.577 23.314ZM119.291 22.698L119.726 22.2629L119.262 21.7991L118.829 22.2915L119.291 22.698ZM119.515 22.922L119.972 23.3337L120.363 22.8997L119.95 22.4869L119.515 22.922ZM118.311 23.818L118.568 24.3771L118.577 24.3728L118.311 23.818ZM116.743 24.14V23.5246C116.11 23.5246 115.576 23.3837 115.121 23.1184L114.811 23.65L114.501 24.1816C115.166 24.5696 115.92 24.7554 116.743 24.7554V24.14ZM114.811 23.65L115.121 23.1184C114.659 22.8491 114.299 22.4787 114.034 21.9961L113.495 22.292L112.955 22.5879C113.325 23.2626 113.842 23.7976 114.501 24.1816L114.811 23.65ZM113.495 22.292L114.034 21.9961C113.772 21.5184 113.634 20.9642 113.634 20.318H113.019H112.403C112.403 21.1464 112.583 21.9083 112.955 22.5879L113.495 22.292ZM113.019 20.318H113.634C113.634 19.6822 113.772 19.1453 114.03 18.6894L113.495 18.386L112.959 18.0826C112.583 18.7467 112.403 19.4978 112.403 20.318H113.019ZM113.495 18.386L114.032 18.6856C114.295 18.2135 114.654 17.8524 115.114 17.5914L114.811 17.056L114.507 16.5206C113.848 16.8943 113.329 17.4198 112.957 18.0864L113.495 18.386ZM114.811 17.056L115.114 17.5914C115.57 17.3331 116.107 17.1954 116.743 17.1954V16.58V15.9646C115.923 15.9646 115.172 16.1443 114.507 16.5206L114.811 17.056ZM116.743 16.58V17.1954C117.251 17.1954 117.692 17.2917 118.077 17.4728L118.339 16.916L118.601 16.3592C118.034 16.0923 117.411 15.9646 116.743 15.9646V16.58ZM118.339 16.916L118.086 17.477C118.486 17.6573 118.814 17.8997 119.08 18.2032L119.543 17.798L120.006 17.3928C119.618 16.9496 119.144 16.604 118.592 16.355L118.339 16.916ZM119.543 17.798L119.095 17.3762L118.871 17.6142L119.319 18.036L119.767 18.4578L119.991 18.2198L119.543 17.798ZM119.319 18.036L119.789 17.6385C119.542 17.3466 119.255 17.099 118.929 16.8971L118.605 17.42L118.28 17.9429C118.496 18.077 118.685 18.2401 118.849 18.4335L119.319 18.036ZM118.605 17.42L118.938 16.9024C118.624 16.7007 118.28 16.5464 117.91 16.4376L117.737 17.028L117.563 17.6184C117.828 17.6962 118.063 17.8033 118.272 17.9376L118.605 17.42ZM117.737 17.028L117.915 16.4391C117.544 16.3265 117.152 16.2726 116.743 16.2726V16.888V17.5034C117.043 17.5034 117.314 17.5428 117.558 17.6169L117.737 17.028ZM116.743 16.888V16.2726C115.984 16.2726 115.287 16.4446 114.669 16.8041L114.979 17.336L115.288 17.8679C115.697 17.6301 116.176 17.5034 116.743 17.5034V16.888ZM114.979 17.336L114.672 16.8023C114.073 17.1465 113.595 17.6261 113.243 18.2305L113.775 18.54L114.307 18.8495C114.552 18.4272 114.877 18.1041 115.285 17.8697L114.979 17.336ZM113.775 18.54L113.239 18.2378C112.892 18.8528 112.722 19.5491 112.711 20.3095L113.327 20.318L113.942 20.3265C113.95 19.7429 114.079 19.2539 114.311 18.8422L113.775 18.54ZM113.327 20.318L112.711 20.3264C112.722 21.0949 112.891 21.8018 113.234 22.432L113.775 22.138L114.315 21.844C114.079 21.4102 113.95 20.9037 113.942 20.3096L113.327 20.318ZM113.775 22.138L113.238 22.4393C113.588 23.0615 114.064 23.5573 114.665 23.9134L114.979 23.384L115.293 22.8546C114.885 22.6134 114.559 22.2785 114.311 21.8367L113.775 22.138ZM114.979 23.384L114.669 23.9159C115.287 24.2754 115.984 24.4474 116.743 24.4474V23.832V23.2166C116.176 23.2166 115.697 23.0899 115.288 22.8521L114.979 23.384ZM116.743 23.832V24.4474C117.138 24.4474 117.52 24.3992 117.885 24.2997L117.723 23.706L117.561 23.1123C117.31 23.1808 117.038 23.2166 116.743 23.2166V23.832ZM117.723 23.706L117.901 24.2949C118.262 24.1857 118.599 24.0315 118.91 23.8316L118.577 23.314L118.244 22.7964C118.032 22.9325 117.8 23.0396 117.544 23.1171L117.723 23.706ZM118.577 23.314L118.914 23.8287C119.229 23.6224 119.509 23.3811 119.753 23.1045L119.291 22.698L118.829 22.2915C118.661 22.4816 118.466 22.651 118.24 22.7993L118.577 23.314ZM119.291 22.698L118.856 23.1331L119.08 23.3571L119.515 22.922L119.95 22.4869L119.726 22.2629L119.291 22.698ZM119.515 22.922L119.057 22.5103C118.777 22.8221 118.441 23.0729 118.044 23.2632L118.311 23.818L118.577 24.3728C119.114 24.1151 119.581 23.7686 119.972 23.3337L119.515 22.922ZM118.311 23.818L118.054 23.2589C117.677 23.4321 117.244 23.5246 116.743 23.5246V24.14V24.7554C117.399 24.7554 118.011 24.6333 118.568 24.3771L118.311 23.818ZM124.28 23.65L123.97 24.1816L123.974 24.1838L124.28 23.65ZM122.964 22.292L122.424 22.5879V22.5879L122.964 22.292ZM122.964 18.386L123.499 18.6894L123.501 18.6856L122.964 18.386ZM124.28 17.056L123.98 16.5185L123.977 16.5206L124.28 17.056ZM128.186 17.056L127.883 17.5914L127.886 17.5935L128.186 17.056ZM129.502 18.386L128.961 18.6789L128.967 18.6894L129.502 18.386ZM129.502 22.292L128.962 21.9961L128.959 22.0029L129.502 22.292ZM128.186 23.65L127.88 23.1162L127.876 23.1184L128.186 23.65ZM128.004 23.384L127.694 22.8521V22.8521L128.004 23.384ZM129.222 22.138L129.759 22.4393V22.4393L129.222 22.138ZM128.004 17.336L127.694 17.8679V17.8679L128.004 17.336ZM124.462 17.336L124.157 16.8017L124.152 16.8041L124.462 17.336ZM123.244 18.554L123.776 18.8635V18.8635L123.244 18.554ZM123.244 22.138L122.707 22.4393V22.4393L123.244 22.138ZM124.462 23.384L124.152 23.9159L124.157 23.9183L124.462 23.384ZM126.24 24.14V23.5246C125.597 23.5246 125.051 23.3831 124.586 23.1162L124.28 23.65L123.974 24.1838C124.647 24.5703 125.409 24.7554 126.24 24.7554V24.14ZM124.28 23.65L124.59 23.1184C124.128 22.8491 123.768 22.4787 123.503 21.9961L122.964 22.292L122.424 22.5879C122.794 23.2626 123.312 23.7976 123.97 24.1816L124.28 23.65ZM122.964 22.292L123.503 21.9961C123.242 21.5184 123.103 20.9642 123.103 20.318H122.488H121.873C121.873 21.1464 122.052 21.9083 122.424 22.5879L122.964 22.292ZM122.488 20.318H123.103C123.103 19.6822 123.241 19.1453 123.499 18.6894L122.964 18.386L122.429 18.0826C122.052 18.7467 121.873 19.4978 121.873 20.318H122.488ZM122.964 18.386L123.501 18.6856C123.765 18.2135 124.123 17.8524 124.583 17.5914L124.28 17.056L123.977 16.5206C123.317 16.8943 122.798 17.4198 122.426 18.0864L122.964 18.386ZM124.28 17.056L124.58 17.5935C125.046 17.3337 125.593 17.1954 126.24 17.1954V16.58V15.9646C125.412 15.9646 124.653 16.1437 123.98 16.5185L124.28 17.056ZM126.24 16.58V17.1954C126.887 17.1954 127.428 17.3337 127.883 17.5914L128.186 17.056L128.489 16.5206C127.824 16.1436 127.068 15.9646 126.24 15.9646V16.58ZM128.186 17.056L127.886 17.5935C128.354 17.8543 128.709 18.2131 128.961 18.6788L129.502 18.386L130.043 18.0932C129.679 17.4202 129.156 16.8923 128.486 16.5185L128.186 17.056ZM129.502 18.386L128.967 18.6894C129.225 19.1453 129.363 19.6822 129.363 20.318H129.978H130.593C130.593 19.4978 130.414 18.7467 130.037 18.0826L129.502 18.386ZM129.978 20.318H129.363C129.363 20.9642 129.224 21.5184 128.962 21.9961L129.502 22.292L130.041 22.5879C130.414 21.9083 130.593 21.1464 130.593 20.318H129.978ZM129.502 22.292L128.959 22.0029C128.705 22.4792 128.349 22.8471 127.88 23.1162L128.186 23.65L128.492 24.1838C129.162 23.7996 129.683 23.2622 130.045 22.5811L129.502 22.292ZM128.186 23.65L127.876 23.1184C127.422 23.383 126.884 23.5246 126.24 23.5246V24.14V24.7554C127.071 24.7554 127.83 24.5703 128.496 24.1816L128.186 23.65ZM126.24 23.832V24.4474C126.998 24.4474 127.696 24.2754 128.313 23.9159L128.004 23.384L127.694 22.8521C127.286 23.0899 126.807 23.2166 126.24 23.2166V23.832ZM128.004 23.384L128.313 23.9159C128.924 23.5604 129.408 23.0643 129.759 22.4393L129.222 22.138L128.685 21.8367C128.439 22.2757 128.11 22.6102 127.694 22.8521L128.004 23.384ZM129.222 22.138L129.759 22.4393C130.115 21.8049 130.285 21.0923 130.285 20.318H129.67H129.055C129.055 20.9064 128.927 21.4071 128.685 21.8367L129.222 22.138ZM129.67 20.318H130.285C130.285 19.5595 130.113 18.8624 129.754 18.2445L129.222 18.554L128.69 18.8635C128.928 19.2723 129.055 19.7512 129.055 20.318H129.67ZM129.222 18.554L129.754 18.2445C129.402 17.639 128.919 17.1564 128.313 16.8041L128.004 17.336L127.694 17.8679C128.116 18.113 128.445 18.4423 128.69 18.8635L129.222 18.554ZM128.004 17.336L128.313 16.8041C127.696 16.4446 126.998 16.2726 126.24 16.2726V16.888V17.5034C126.807 17.5034 127.286 17.6301 127.694 17.8679L128.004 17.336ZM126.24 16.888V16.2726C125.481 16.2726 124.781 16.4447 124.157 16.8017L124.462 17.336L124.767 17.8703C125.188 17.63 125.673 17.5034 126.24 17.5034V16.888ZM124.462 17.336L124.152 16.8041C123.547 17.1564 123.064 17.639 122.712 18.2445L123.244 18.554L123.776 18.8635C124.021 18.4423 124.35 18.113 124.771 17.8679L124.462 17.336ZM123.244 18.554L122.712 18.2445C122.353 18.8624 122.181 19.5595 122.181 20.318H122.796H123.411C123.411 19.7512 123.538 19.2723 123.776 18.8635L123.244 18.554ZM122.796 20.318H122.181C122.181 21.0923 122.351 21.8049 122.707 22.4393L123.244 22.138L123.781 21.8367C123.539 21.4071 123.411 20.9064 123.411 20.318H122.796ZM123.244 22.138L122.707 22.4393C123.058 23.0643 123.541 23.5604 124.152 23.9159L124.462 23.384L124.771 22.8521C124.356 22.6102 124.027 22.2757 123.781 21.8367L123.244 22.138ZM124.462 23.384L124.157 23.9183C124.781 24.2753 125.481 24.4474 126.24 24.4474V23.832V23.2166C125.673 23.2166 125.188 23.09 124.767 22.8497L124.462 23.384ZM134.923 23.664L134.601 24.1885L134.612 24.1949L134.923 23.664ZM133.663 22.334L133.122 22.6268L133.124 22.6306L133.663 22.334ZM133.677 18.428L134.215 18.7276L134.217 18.7239L133.677 18.428ZM134.937 17.07L134.615 16.5456L134.611 16.5482L134.937 17.07ZM137.779 16.776L137.561 17.3516L137.571 17.3551L137.58 17.3583L137.779 16.776ZM138.745 17.308L138.359 17.7871L138.368 17.7946L138.745 17.308ZM139.473 18.106L138.954 18.4364L138.959 18.4436L139.473 18.106ZM139.865 19.1L139.59 19.6504L140.688 20.1993L140.471 18.9913L139.865 19.1ZM139.781 19.058H139.166V19.4383L139.506 19.6084L139.781 19.058ZM139.781 13.64V13.0246H139.166V13.64H139.781ZM140.089 13.64H140.705V13.0246H140.089V13.64ZM140.089 24V24.6154H140.705V24H140.089ZM139.781 24H139.166V24.6154H139.781V24ZM139.781 21.592L139.587 21.0082L139.166 21.1485V21.592H139.781ZM139.907 21.55L140.504 21.6993L140.776 20.6117L139.713 20.9662L139.907 21.55ZM139.473 22.586L139.997 22.9094V22.9094L139.473 22.586ZM138.759 23.412L138.365 22.9392V22.9392L138.759 23.412ZM137.835 23.958L138.044 24.5368L138.051 24.5343L138.058 24.5315L137.835 23.958ZM138.283 23.398L138.612 23.9181L138.615 23.9163L138.283 23.398ZM139.375 22.166L138.829 21.883L138.825 21.8908L139.375 22.166ZM139.375 18.568L138.825 18.8432L138.829 18.851L139.375 18.568ZM138.283 17.336L137.947 17.8513L137.951 17.8543L138.283 17.336ZM135.049 17.336L135.372 17.8601V17.8601L135.049 17.336ZM133.915 18.582L134.462 18.865L134.464 18.861L133.915 18.582ZM133.915 22.166L133.369 22.449L133.371 22.453L133.915 22.166ZM135.049 23.384L135.372 22.8599V22.8599L135.049 23.384ZM136.757 24.14V23.5246C136.176 23.5246 135.673 23.3904 135.234 23.1331L134.923 23.664L134.612 24.1949C135.256 24.5723 135.976 24.7554 136.757 24.7554V24.14ZM134.923 23.664L135.245 23.1396C134.806 22.8701 134.46 22.5063 134.202 22.0374L133.663 22.334L133.124 22.6306C133.482 23.2817 133.976 23.8045 134.601 24.1884L134.923 23.664ZM133.663 22.334L134.204 22.0412C133.951 21.5725 133.817 21.0267 133.817 20.388H133.201H132.586C132.586 21.2053 132.759 21.9568 133.122 22.6268L133.663 22.334ZM133.201 20.388H133.817C133.817 19.7416 133.955 19.1939 134.215 18.7276L133.677 18.428L133.14 18.1284C132.765 18.8008 132.586 19.5598 132.586 20.388H133.201ZM133.677 18.428L134.217 18.7239C134.487 18.2308 134.836 17.8588 135.263 17.5918L134.937 17.07L134.611 16.5482C133.993 16.9346 133.502 17.4678 133.138 18.1321L133.677 18.428ZM134.937 17.07L135.259 17.5944C135.691 17.3292 136.167 17.1954 136.701 17.1954V16.58V15.9646C135.947 15.9646 135.247 16.1575 134.615 16.5456L134.937 17.07ZM136.701 16.58V17.1954C137.001 17.1954 137.286 17.2475 137.561 17.3516L137.779 16.776L137.997 16.2004C137.581 16.0431 137.148 15.9646 136.701 15.9646V16.58ZM137.779 16.776L137.58 17.3583C137.867 17.4566 138.126 17.5991 138.359 17.787L138.745 17.308L139.132 16.829C138.786 16.5502 138.4 16.3381 137.978 16.1937L137.779 16.776ZM138.745 17.308L138.368 17.7946C138.602 17.9752 138.796 18.1884 138.954 18.4364L139.473 18.106L139.992 17.7756C139.758 17.4076 139.467 17.0888 139.122 16.8214L138.745 17.308ZM139.473 18.106L138.959 18.4436C139.108 18.6705 139.208 18.9235 139.259 19.2087L139.865 19.1L140.471 18.9913C140.391 18.5485 140.231 18.1389 139.988 17.7684L139.473 18.106ZM139.865 19.1L140.14 18.5496L140.056 18.5076L139.781 19.058L139.506 19.6084L139.59 19.6504L139.865 19.1ZM139.781 19.058H140.397V13.64H139.781H139.166V19.058H139.781ZM139.781 13.64V14.2554H140.089V13.64V13.0246H139.781V13.64ZM140.089 13.64H139.474V24H140.089H140.705V13.64H140.089ZM140.089 24V23.3846H139.781V24V24.6154H140.089V24ZM139.781 24H140.397V21.592H139.781H139.166V24H139.781ZM139.781 21.592L139.976 22.1758L140.102 22.1338L139.907 21.55L139.713 20.9662L139.587 21.0082L139.781 21.592ZM139.907 21.55L139.31 21.4007C139.232 21.7146 139.111 22.0009 138.95 22.2626L139.473 22.586L139.997 22.9094C140.227 22.5364 140.396 22.1321 140.504 21.6993L139.907 21.55ZM139.473 22.586L138.95 22.2626C138.788 22.5248 138.593 22.7494 138.365 22.9392L138.759 23.412L139.153 23.8848C139.485 23.6079 139.767 23.2818 139.997 22.9094L139.473 22.586ZM138.759 23.412L138.365 22.9392C138.136 23.1304 137.885 23.2782 137.612 23.3845L137.835 23.958L138.058 24.5315C138.457 24.3765 138.823 24.1602 139.153 23.8848L138.759 23.412ZM137.835 23.958L137.626 23.3792C137.362 23.4747 137.074 23.5246 136.757 23.5246V24.14V24.7554C137.206 24.7554 137.637 24.684 138.044 24.5368L137.835 23.958ZM136.743 23.832V24.4474C137.423 24.4474 138.051 24.273 138.612 23.918L138.283 23.398L137.954 22.878C137.601 23.1017 137.202 23.2166 136.743 23.2166V23.832ZM138.283 23.398L138.615 23.9163C139.18 23.5545 139.617 23.0575 139.926 22.4412L139.375 22.166L138.825 21.8908C138.61 22.3198 138.319 22.6442 137.951 22.8797L138.283 23.398ZM139.375 22.166L139.922 22.449C140.244 21.826 140.397 21.1243 140.397 20.36H139.781H139.166C139.166 20.9584 139.047 21.4607 138.829 21.883L139.375 22.166ZM139.781 20.36H140.397C140.397 19.6036 140.244 18.9068 139.922 18.285L139.375 18.568L138.829 18.851C139.048 19.2745 139.166 19.7724 139.166 20.36H139.781ZM139.375 18.568L139.926 18.2928C139.617 17.6765 139.18 17.1795 138.615 16.8177L138.283 17.336L137.951 17.8543C138.319 18.0898 138.61 18.4142 138.825 18.8432L139.375 18.568ZM138.283 17.336L138.62 16.8208C138.055 16.4517 137.413 16.2726 136.715 16.2726V16.888V17.5034C137.193 17.5034 137.597 17.623 137.947 17.8512L138.283 17.336ZM136.715 16.888V16.2726C135.987 16.2726 135.318 16.4478 134.727 16.8119L135.049 17.336L135.372 17.8601C135.751 17.6269 136.192 17.5034 136.715 17.5034V16.888ZM135.049 17.336L134.727 16.8119C134.14 17.1728 133.686 17.675 133.367 18.3029L133.915 18.582L134.464 18.861C134.686 18.425 134.987 18.0965 135.372 17.8601L135.049 17.336ZM133.915 18.582L133.369 18.299C133.046 18.922 132.894 19.6237 132.894 20.388H133.509H134.125C134.125 19.7896 134.243 19.2873 134.462 18.865L133.915 18.582ZM133.509 20.388H132.894C132.894 21.1366 133.047 21.8284 133.369 22.449L133.915 22.166L134.462 21.883C134.242 21.4583 134.125 20.9647 134.125 20.388H133.509ZM133.915 22.166L133.371 22.453C133.692 23.0619 134.146 23.5506 134.727 23.9081L135.049 23.384L135.372 22.8599C134.982 22.6201 134.68 22.2967 134.46 21.879L133.915 22.166ZM135.049 23.384L134.727 23.9081C135.321 24.2739 136.001 24.4474 136.743 24.4474V23.832V23.2166C136.198 23.2166 135.748 23.0914 135.372 22.8599L135.049 23.384ZM145.472 23.65L145.154 24.1769V24.1769L145.472 23.65ZM144.198 22.292L143.652 22.5743L143.655 22.5811L144.198 22.292ZM144.002 18.806L143.425 18.5938V18.5938L144.002 18.806ZM144.702 17.63L144.249 17.2142L144.248 17.2148L144.702 17.63ZM145.794 16.86L146.034 17.427L146.044 17.4223L145.794 16.86ZM148.468 16.818L148.237 17.3885L148.249 17.3931L148.468 16.818ZM149.476 17.49L149.027 17.9109L149.034 17.9181L149.041 17.9251L149.476 17.49ZM150.33 19.926L150.945 19.9497L150.945 19.9484L150.33 19.926ZM150.316 20.29V20.9054H150.909L150.931 20.3137L150.316 20.29ZM143.918 20.29H143.303V20.9054H143.918V20.29ZM143.918 19.982V19.3666H143.303V19.982H143.918ZM150.162 19.982L150.665 20.3369L151.35 19.3666H150.162V19.982ZM149.994 20.22L149.381 20.1709L149.202 22.4099L150.497 20.5749L149.994 20.22ZM150.022 19.87L150.636 19.9191L150.638 19.8946V19.87H150.022ZM149.644 18.302L149.108 18.6037V18.6037L149.644 18.302ZM148.622 17.266L148.306 17.7937L148.313 17.7978L148.32 17.8017L148.622 17.266ZM145.556 17.336L145.881 17.859L145.883 17.8573L145.556 17.336ZM144.464 18.554L145.013 18.8332L145.015 18.8292L144.464 18.554ZM144.058 20.318L143.443 20.3093L143.443 20.3179L143.443 20.3264L144.058 20.318ZM144.492 22.138L143.948 22.4246V22.4246L144.492 22.138ZM145.64 23.384L145.318 23.9081L145.322 23.9108L145.64 23.384ZM148.692 23.566L148.448 23.001V23.001L148.692 23.566ZM149.798 22.838L150.31 22.4966L149.906 21.8905L149.376 22.3903L149.798 22.838ZM149.966 23.09L150.383 23.5429L150.77 23.1866L150.478 22.7486L149.966 23.09ZM149.21 23.65L149.516 24.1843L149.522 24.1809L149.21 23.65ZM148.342 24L148.185 23.4051L148.174 23.4079L148.164 23.4111L148.342 24ZM147.348 24.14V23.5246C146.737 23.5246 146.224 23.385 145.79 23.1231L145.472 23.65L145.154 24.1769C145.803 24.5683 146.541 24.7554 147.348 24.7554V24.14ZM145.472 23.65L145.79 23.1231C145.348 22.8561 144.999 22.4872 144.742 22.0029L144.198 22.292L143.655 22.5811C144.013 23.2542 144.514 23.7906 145.154 24.1769L145.472 23.65ZM144.198 22.292L144.745 22.0098C144.497 21.5293 144.366 20.9702 144.366 20.318H143.75H143.135C143.135 21.1404 143.302 21.8974 143.652 22.5742L144.198 22.292ZM143.75 20.318H144.366C144.366 19.8304 144.44 19.3993 144.58 19.0182L144.002 18.806L143.425 18.5938C143.229 19.1273 143.135 19.7043 143.135 20.318H143.75ZM144.002 18.806L144.58 19.0182C144.723 18.6283 144.917 18.3072 145.157 18.0452L144.702 17.63L144.248 17.2148C143.89 17.6061 143.618 18.069 143.425 18.5938L144.002 18.806ZM144.702 17.63L145.156 18.0458C145.404 17.775 145.695 17.5699 146.034 17.4269L145.794 16.86L145.555 16.2931C145.054 16.5048 144.617 16.813 144.249 17.2142L144.702 17.63ZM145.794 16.86L146.044 17.4223C146.378 17.2739 146.754 17.1954 147.18 17.1954V16.58V15.9646C146.599 15.9646 146.05 16.0728 145.544 16.2977L145.794 16.86ZM147.18 16.58V17.1954C147.576 17.1954 147.926 17.2624 148.238 17.3884L148.468 16.818L148.699 16.2476C148.227 16.0563 147.718 15.9646 147.18 15.9646V16.58ZM148.468 16.818L148.249 17.3931C148.556 17.51 148.813 17.6821 149.027 17.9109L149.476 17.49L149.925 17.0691C149.58 16.7005 149.165 16.4247 148.687 16.2429L148.468 16.818ZM149.476 17.49L149.041 17.9251C149.263 18.1466 149.435 18.4183 149.556 18.7503L150.134 18.54L150.713 18.3297C150.535 17.8404 150.269 17.412 149.912 17.0549L149.476 17.49ZM150.134 18.54L149.556 18.7503C149.674 19.0746 149.732 19.4558 149.715 19.9036L150.33 19.926L150.945 19.9484C150.966 19.3695 150.893 18.8267 150.713 18.3297L150.134 18.54ZM150.33 19.926L149.715 19.9023L149.701 20.2663L150.316 20.29L150.931 20.3137L150.945 19.9497L150.33 19.926ZM150.316 20.29V19.6746H143.918V20.29V20.9054H150.316V20.29ZM143.918 20.29H144.534V19.982H143.918H143.303V20.29H143.918ZM143.918 19.982V20.5974H150.162V19.982V19.3666H143.918V19.982ZM150.162 19.982L149.66 19.6271L149.492 19.8651L149.994 20.22L150.497 20.5749L150.665 20.3369L150.162 19.982ZM149.994 20.22L150.608 20.2691L150.636 19.9191L150.022 19.87L149.409 19.8209L149.381 20.1709L149.994 20.22ZM150.022 19.87H150.638C150.638 19.1843 150.492 18.5544 150.181 18.0003L149.644 18.302L149.108 18.6037C149.3 18.9456 149.407 19.3611 149.407 19.87H150.022ZM149.644 18.302L150.181 18.0003C149.876 17.4588 149.457 17.0306 148.925 16.7303L148.622 17.266L148.32 17.8017C148.647 17.9868 148.909 18.2492 149.108 18.6037L149.644 18.302ZM148.622 17.266L148.939 16.7383C148.419 16.4261 147.842 16.2726 147.222 16.2726V16.888V17.5034C147.63 17.5034 147.986 17.6019 148.306 17.7937L148.622 17.266ZM147.222 16.888V16.2726C146.487 16.2726 145.816 16.4469 145.229 16.8147L145.556 17.336L145.883 17.8573C146.249 17.6278 146.688 17.5034 147.222 17.5034V16.888ZM145.556 17.336L145.232 16.813C144.662 17.1663 144.223 17.661 143.914 18.2788L144.464 18.554L145.015 18.8292C145.229 18.4017 145.517 18.0844 145.881 17.859L145.556 17.336ZM144.464 18.554L143.916 18.2748C143.606 18.8838 143.454 19.5667 143.443 20.3093L144.058 20.318L144.674 20.3267C144.682 19.7439 144.8 19.2509 145.013 18.8332L144.464 18.554ZM144.058 20.318L143.443 20.3264C143.454 21.0917 143.617 21.7959 143.948 22.4246L144.492 22.138L145.037 21.8514C144.808 21.4161 144.682 20.9069 144.674 20.3096L144.058 20.318ZM144.492 22.138L143.948 22.4246C144.276 23.0487 144.733 23.5484 145.318 23.9081L145.64 23.384L145.963 22.8599C145.577 22.6223 145.269 22.2913 145.037 21.8514L144.492 22.138ZM145.64 23.384L145.322 23.9108C145.924 24.2739 146.605 24.4474 147.348 24.4474V23.832V23.2166C146.803 23.2166 146.346 23.0915 145.958 22.8572L145.64 23.384ZM147.348 23.832V24.4474C147.91 24.4474 148.442 24.3443 148.936 24.131L148.692 23.566L148.448 23.001C148.121 23.1424 147.757 23.2166 147.348 23.2166V23.832ZM148.692 23.566L148.936 24.131C149.413 23.9251 149.842 23.6427 150.221 23.2857L149.798 22.838L149.376 22.3903C149.102 22.6493 148.793 22.8522 148.448 23.001L148.692 23.566ZM149.798 22.838L149.286 23.1794L149.454 23.4314L149.966 23.09L150.478 22.7486L150.31 22.4966L149.798 22.838ZM149.966 23.09L149.55 22.6371C149.348 22.8224 149.132 22.9828 148.899 23.1191L149.21 23.65L149.522 24.1809C149.831 23.9998 150.118 23.7869 150.383 23.5429L149.966 23.09ZM149.21 23.65L148.905 23.1157C148.694 23.2362 148.455 23.3336 148.185 23.4051L148.342 24L148.5 24.5949C148.864 24.4984 149.204 24.3625 149.516 24.1843L149.21 23.65ZM148.342 24L148.164 23.4111C147.919 23.4852 147.649 23.5246 147.348 23.5246V24.14V24.7554C147.757 24.7554 148.149 24.7015 148.521 24.5889L148.342 24Z" fill="#EBECF0" mask="url(#path-3-outside-1_152_1179)"/>
</svg>
